<svg width="312" height="59" viewBox="0 0 312 59" fill="none" xmlns="http://www.w3.org/2000/svg">
<g clip-path="url(#clip0_300_1075)">
<path d="M87.9843 41.7289C82.2488 41.7289 78.6945 36.6186 78.6945 29.5481C78.6945 22.5477 81.6857 17.3323 87.949 17.3323C92.0658 17.3323 94.7754 19.9575 95.2686 23.4227H104.84C104.347 19.1174 102.411 15.3372 99.0336 12.8171C96.2888 10.7169 92.4884 9.42188 87.9843 9.42188C76.4424 9.42188 68.9473 18.1024 68.9473 29.5481C68.9473 41.0639 76.6888 49.4994 88.055 49.4994C93.5086 49.4994 97.4849 47.9944 100.441 45.1241C103.08 42.604 104.84 39.1037 105.086 35.2885H95.5144C95.0926 39.0338 92.2771 41.7289 87.9843 41.7289Z" fill="#BFBCB8"/>
<path d="M122.751 20.3789C113.883 20.3789 107.937 26.6793 107.937 34.9749C107.937 43.2704 113.883 49.5708 122.751 49.5708C131.688 49.5708 137.53 43.2704 137.53 34.9749C137.53 26.6793 131.688 20.3789 122.751 20.3789ZM122.716 43.3054C118.88 43.3054 116.874 39.9802 116.874 34.9749C116.874 29.9695 118.88 26.5743 122.716 26.5743C126.551 26.5743 128.627 29.9695 128.627 34.9749C128.592 39.9802 126.551 43.3054 122.716 43.3054Z" fill="#BFBCB8"/>
<path d="M150.051 17.4477C151.933 15.575 151.933 12.5389 150.051 10.6662C148.168 8.79355 145.116 8.79355 143.233 10.6662C141.351 12.5389 141.351 15.575 143.233 17.4477C145.116 19.3204 148.168 19.3204 150.051 17.4477Z" fill="#BFBCB8"/>
<path d="M138.973 27.3087H142.667V48.695H151.465V21.1133H138.973V27.3087Z" fill="#BFBCB8"/>
<path d="M173.106 20.3086C169.271 20.3086 166.596 21.9187 164.556 24.8939H164.38V21.1137H155.899V48.6604H164.732V33.4344C164.732 30.0392 166.667 27.6241 169.588 27.6241C172.473 27.6241 173.916 29.6191 173.916 32.5244V48.6604H182.748V30.7393C182.748 24.6139 179.159 20.3086 173.106 20.3086Z" fill="#BFBCB8"/>
<path d="M203.437 10.1914H186.935V48.6589H202.84C207.696 48.6589 211.601 47.4339 214.628 45.1587C218.956 41.8685 221.349 36.4431 221.349 29.6527C221.349 17.8919 214.135 10.1914 203.437 10.1914ZM202.136 40.6784H196.506V18.1719H202.241C208.259 18.1719 211.672 22.6872 211.672 29.6877C211.637 36.7231 208.399 40.6784 202.136 40.6784Z" fill="#BFBCB8"/>
<path d="M247.493 23.9497C245.101 21.8146 241.969 20.5195 238.028 20.5195C229.582 20.5195 223.812 26.8199 223.812 35.0455C223.812 43.376 229.442 49.6764 238.591 49.6764C242.11 49.6764 244.925 48.7663 247.248 47.1563C249.675 45.4762 251.294 43.1309 251.892 40.6459H243.306C242.532 42.361 241.019 43.376 238.697 43.376C235.072 43.376 233.031 41.0659 232.468 37.3556H252.385C252.42 31.7202 250.801 26.9599 247.493 23.9497ZM232.503 32.1053C233.102 28.815 234.825 26.715 238.169 26.715C241.019 26.715 243.095 28.815 243.412 32.1053H232.503Z" fill="#BFBCB8"/>
<path d="M269.768 31.4401C266.249 30.81 263.117 30.53 263.117 28.6049C263.117 26.8898 264.806 26.0847 266.952 26.0847C269.381 26.0847 271.07 26.8548 271.386 29.3049H279.515C279.093 23.8796 274.87 20.4844 267.023 20.4844C260.478 20.4844 255.059 23.4946 255.059 29.3049C255.059 35.7803 260.197 37.0404 265.017 37.8455C268.712 38.4755 272.055 38.7556 272.055 41.2407C272.055 43.0258 270.366 43.9709 267.727 43.9709C264.806 43.9709 262.976 42.6408 262.624 39.8756H254.285C254.566 45.966 259.633 49.6762 267.762 49.6762C275.011 49.6762 280.359 46.5611 280.359 40.5407C280.395 33.5052 274.659 32.2451 269.768 31.4401Z" fill="#BFBCB8"/>
<path d="M301.121 31.4728L310.869 21.1121H300.699L292.465 30.4228V10.1914H283.773V48.6939H292.465V40.2233L295.139 37.4232L301.79 48.6939H311.995L301.121 31.4728Z" fill="#BFBCB8"/>
<path d="M30.1694 32.1055C31.6465 32.1055 32.8438 30.9145 32.8438 29.4453C32.8438 27.9761 31.6465 26.7852 30.1694 26.7852C28.6925 26.7852 27.4951 27.9761 27.4951 29.4453C27.4951 30.9145 28.6925 32.1055 30.1694 32.1055Z" fill="#BFBCB8"/>
<path d="M51.4946 32.1055C52.9716 32.1055 54.169 30.9145 54.169 29.4453C54.169 27.9761 52.9716 26.7852 51.4946 26.7852C50.0176 26.7852 48.8203 27.9761 48.8203 29.4453C48.8203 30.9145 50.0176 32.1055 51.4946 32.1055Z" fill="#BFBCB8"/>
<path d="M51.4946 53.3516C52.9716 53.3516 54.169 52.1606 54.169 50.6914C54.169 49.2223 52.9716 48.0312 51.4946 48.0312C50.0176 48.0312 48.8203 49.2223 48.8203 50.6914C48.8203 52.1606 50.0176 53.3516 51.4946 53.3516Z" fill="#BFBCB8"/>
<path d="M59.3412 7.7073C59.0596 3.82205 55.9279 0.671843 52.022 0.391825C49.5236 0.216814 47.2715 1.16187 45.688 2.77198C44.4916 3.99706 42.8729 4.7321 41.1487 4.7321H40.5153C38.7559 4.7321 37.102 3.99706 35.8704 2.73698C34.4277 1.26688 32.4219 0.391825 30.2051 0.391825C27.9881 0.391825 25.9824 1.30188 24.5397 2.73698C23.3081 3.99706 21.6542 4.7321 19.8948 4.7321H19.2966C17.5724 4.7321 15.9185 4.06706 14.722 2.84199C14.4758 2.59697 14.2294 2.35196 13.9831 2.14194C10.9921 -0.273218 6.5935 -0.203214 3.70804 2.35196C0.22437 5.39715 0.083616 10.7175 3.32096 13.9377C3.35616 13.9727 3.39134 14.0077 3.42653 14.0427C4.69332 15.2328 5.3619 16.9129 5.3619 18.628V19.2231C5.3619 20.9732 4.62294 22.6183 3.35615 23.8433C1.87823 25.2785 0.99852 27.2735 0.99852 29.4787C0.99852 31.6838 1.91342 33.679 3.35615 35.1141C4.62294 36.3392 5.3619 37.9843 5.3619 39.7344V40.5395C5.3619 42.2546 4.62294 43.8646 3.39134 45.0547C1.84305 46.5599 0.892954 48.695 0.99852 51.0401C1.17446 55.1704 4.55256 58.4956 8.66963 58.6356C11.0625 58.7056 13.209 57.7605 14.722 56.1855C15.9185 54.9604 17.5371 54.1903 19.2614 54.1903H19.93C21.6542 54.1903 23.2729 54.9254 24.4693 56.1855C26.0528 57.8306 28.3401 58.7756 30.8385 58.6006C34.7443 58.3206 37.9113 55.1703 38.1929 51.2501C38.5095 46.5949 34.85 42.7446 30.2402 42.7446C28.0585 42.7446 26.0528 43.6196 24.61 45.0547C23.3784 46.2798 21.7246 47.0149 20.0003 47.0149H19.2614C17.5371 47.0149 15.8481 46.3498 14.6165 45.0897C14.5813 45.0547 14.5813 45.0547 14.5461 45.0197C13.2793 43.7946 12.5404 42.1495 12.5404 40.3994V39.6994C12.5404 37.9493 13.2793 36.3042 14.5461 35.0791C16.024 33.644 16.9038 31.6488 16.9038 29.4437C16.9038 27.2386 15.9888 25.2435 14.5461 23.8083C13.2793 22.5832 12.5404 20.9382 12.5404 19.1881V18.558C12.5404 16.8079 13.2793 15.1627 14.5109 13.9377C14.5461 13.9027 14.5461 13.9027 14.5813 13.8677C14.6165 13.8327 14.6165 13.8327 14.6517 13.7977C15.8833 12.5726 17.5371 11.8376 19.2966 11.8376H19.93C21.6894 11.8376 23.3432 12.5726 24.5749 13.8327C26.0176 15.3028 28.0233 16.1779 30.2402 16.1779C32.4571 16.1779 34.4628 15.2678 35.9056 13.8327C37.1372 12.5726 38.7911 11.8376 40.5504 11.8376H41.1135C42.8729 11.8376 44.5268 12.5726 45.7584 13.8327C47.2011 15.3028 49.2068 16.1779 51.4238 16.1779C55.9983 16.2129 59.6578 12.3626 59.3412 7.7073Z" fill="#BFBCB8"/>
</g>
<defs>
<clipPath id="clip0_300_1075">
<rect width="311.005" height="58.4746" fill="white" transform="translate(0.990234 0.371094)"/>
</clipPath>
</defs>
</svg>
