<svg width="60" height="56" viewBox="0 0 60 56" fill="none" xmlns="http://www.w3.org/2000/svg">
<path d="M8.26957 18.7169L8.75414 10.4382L15.5232 14.2939L18.667 7.7766L24.6128 11.9515L30 0.882812L34.7723 12.3721L41.8032 7.76066L44.2273 14.8157L52.7214 12.8573L51.4 20.2705L60 26.1691L52.3144 30.3914L52.8806 38.8778L43.6389 37.4473L44.9602 55.3352L35.661 38.8778L30.443 43.4378L25.2918 38.7572L17.0164 45.2731L12.2754 35.7968L2.41453 36.5841L6.57949 27.4388L0 20.7693L8.26957 18.7169Z" fill="#FFC250"/>
<path d="M59.9993 26.1712L51.3993 20.2727L52.7207 12.8594L47.6846 14.0205L46.5703 20.2727L55.1704 26.1712L47.4847 30.3936L48.0006 38.1247L52.8799 38.8799L52.3137 30.3936L59.9993 26.1712Z" fill="#EBB044"/>
<path d="M38.7393 36.7383L39.4046 45.5048L44.9598 55.3362L43.6385 37.4483L38.7393 36.7383Z" fill="#EBB044"/>
<path d="M27.9263 21.332C27.9219 21.332 27.9175 21.332 27.913 21.3321C27.413 21.3392 27.0135 21.7504 27.0206 22.2504L27.0878 26.9445L23.4588 21.7562C23.2318 21.4316 22.8202 21.2924 22.4429 21.4122C22.0655 21.5321 21.8098 21.8833 21.8115 22.2793L21.8461 29.777C21.8484 30.2758 22.2533 30.6783 22.7514 30.6783H22.7556C23.2558 30.676 23.6591 30.2687 23.6569 29.7687L23.6357 25.1683L27.0936 30.1121C27.3634 30.4968 27.8098 30.6582 28.2306 30.5246C28.6607 30.3878 28.9372 29.9822 28.935 29.4825L28.8312 22.2242C28.8243 21.7288 28.4203 21.332 27.9263 21.332Z" fill="white"/>
<path d="M19.427 21.375H19.4228C18.9226 21.3773 18.5193 21.7846 18.5215 22.2846L18.5561 29.7964C18.5584 30.2952 18.9633 30.6977 19.4613 30.6977H19.4656C19.9657 30.6954 20.3691 30.2882 20.3668 29.7881L20.3323 22.2763C20.3299 21.7775 19.925 21.375 19.427 21.375Z" fill="white"/>
<path d="M16.3056 25.4825C16.5893 25.0532 16.7404 24.5502 16.738 24.0242V24.0241C16.7312 22.5759 15.5486 21.4023 14.0991 21.4023H14.0868L11.8984 21.4124C11.6583 21.4135 11.4283 21.51 11.2593 21.6805C11.0902 21.8512 10.996 22.0819 10.9971 22.322L11.013 25.7866V25.7886L11.0318 29.8339C11.0329 30.0746 11.1299 30.3051 11.3014 30.4742C11.4709 30.6415 11.6993 30.735 11.9373 30.735H11.9454C11.9456 30.735 13.9572 30.7169 14.512 30.7144C15.2949 30.7108 16.0299 30.4032 16.5813 29.8484C17.1334 29.2928 17.4355 28.5559 17.4318 27.7735C17.4275 26.8437 16.9871 26.0159 16.3056 25.4825ZM14.0952 23.2132H14.099C14.5538 23.2132 14.925 23.58 14.9271 24.0326C14.928 24.2519 14.8433 24.4586 14.6881 24.6147C14.5324 24.7714 14.3244 24.8583 14.1027 24.8594C13.8599 24.8607 13.1687 24.8665 12.8196 24.8673L12.8121 23.2192L14.0952 23.2132ZM15.2967 28.5719C15.0855 28.7843 14.8039 28.9021 14.5037 28.9035C14.1977 28.9049 13.4497 28.9109 12.8383 28.9163L12.8279 26.6705H14.4986C15.1152 26.6705 15.618 27.1679 15.6208 27.7819C15.6224 28.0796 15.5072 28.3602 15.2967 28.5719Z" fill="white"/>
<path d="M37.8008 25.0375H37.7966L35.5429 25.0479C35.0427 25.0503 34.6393 25.4575 34.6416 25.9575C34.6439 26.4563 35.0488 26.8588 35.5468 26.8588H35.5511L36.8024 26.8531C36.7007 27.3135 36.5172 27.718 36.2622 28.0347C35.851 28.5448 35.2791 28.8052 34.562 28.8085H34.5485C32.9768 28.8085 31.6943 27.5384 31.687 25.9713C31.6835 25.2104 31.9776 24.4934 32.5149 23.9527C33.0531 23.4113 33.7705 23.1112 34.5354 23.1077H34.5488C35.1178 23.1077 35.6672 23.2734 36.1382 23.5874C36.5542 23.8648 37.1163 23.7523 37.3937 23.3363C37.6711 22.9203 37.5586 22.3581 37.1426 22.0807C36.367 21.5637 35.464 21.2975 34.5271 21.2969C33.2795 21.3026 32.1087 21.7925 31.2304 22.6764C30.3512 23.5609 29.8702 24.7341 29.876 25.9797C29.8879 28.5427 31.9817 30.6197 34.5482 30.6196H34.57C35.8221 30.614 36.9238 30.0995 37.6718 29.1713C38.3443 28.3368 38.7116 27.1891 38.7059 25.9394C38.7039 25.4402 38.299 25.0375 37.8008 25.0375Z" fill="white"/>
<path d="M44.3301 21.2461H44.3083C43.0608 21.2518 41.8899 21.7417 41.0116 22.6256C40.1325 23.5102 39.6514 24.6832 39.6573 25.9288C39.6691 28.4919 41.7629 30.5688 44.3293 30.5688H44.3511C45.5987 30.5631 46.7695 30.0732 47.6478 29.1893C48.527 28.3048 49.008 27.1316 49.0022 25.886C48.9903 23.323 46.8965 21.2461 44.3301 21.2461ZM46.3635 27.9129C45.8252 28.4543 45.1078 28.7544 44.3429 28.7579H44.3294C42.7578 28.7579 41.4753 27.4879 41.4682 25.9206C41.4647 25.1597 41.7587 24.4429 42.296 23.9021C42.8342 23.3606 43.5517 23.0606 44.3165 23.0571H44.33C45.9016 23.0571 47.1841 24.3272 47.1914 25.8943C47.1948 26.6551 46.9008 27.3721 46.3635 27.9129Z" fill="white"/>
<path d="M10.5621 2.47887C11.7273 2.47887 11.7293 0.667969 10.5621 0.667969C9.39695 0.667969 9.39496 2.47887 10.5621 2.47887Z" fill="#BEDDF3"/>
<path d="M22.7174 5.17027C23.8826 5.17027 23.8846 3.35938 22.7174 3.35938C21.5522 3.35949 21.5502 5.17027 22.7174 5.17027Z" fill="#E28086"/>
<path d="M3.31996 15.2757C4.48515 15.2757 4.48714 13.4648 3.31996 13.4648C2.15476 13.465 2.15277 15.2757 3.31996 15.2757Z" fill="#E28086"/>
<path d="M42.0152 3.27184C43.1804 3.27184 43.1824 1.46094 42.0152 1.46094C40.85 1.46094 40.8482 3.27184 42.0152 3.27184Z" fill="#FFC250"/>
<path d="M57.5885 19.0257C58.7537 19.0257 58.7557 17.2148 57.5885 17.2148C56.4233 17.2148 56.4213 19.0257 57.5885 19.0257Z" fill="#BEDDF3"/>
<path d="M34.7721 46.9125C35.9373 46.9125 35.9392 45.1016 34.7721 45.1016C33.6069 45.1016 33.605 46.9125 34.7721 46.9125Z" fill="#E28086"/>
<path d="M24.4508 51.2562C25.616 51.2562 25.618 49.4453 24.4508 49.4453C23.2856 49.4454 23.2837 51.2562 24.4508 51.2562Z" fill="#FFC250"/>
<path d="M8.87859 42.9281C10.0438 42.9281 10.0458 41.1172 8.87859 41.1172C7.71328 41.1173 7.71141 42.9281 8.87859 42.9281Z" fill="#BEDDF3"/>
</svg>
