<svg width="473" height="505" viewBox="0 0 473 505" fill="none" xmlns="http://www.w3.org/2000/svg">
<path d="M5.47887 478V465.4H7.27887V476.434H14.1009V478H5.47887ZM15.9144 478V468.46H17.6424V478H15.9144ZM16.7784 466.624C16.4424 466.624 16.1604 466.516 15.9324 466.3C15.7164 466.084 15.6084 465.82 15.6084 465.508C15.6084 465.184 15.7164 464.914 15.9324 464.698C16.1604 464.482 16.4424 464.374 16.7784 464.374C17.1144 464.374 17.3904 464.482 17.6064 464.698C17.8344 464.902 17.9484 465.16 17.9484 465.472C17.9484 465.796 17.8404 466.072 17.6244 466.3C17.4084 466.516 17.1264 466.624 16.7784 466.624ZM24.8837 478.108C23.9597 478.108 23.1317 477.904 22.3997 477.496C21.6797 477.088 21.1097 476.518 20.6897 475.786C20.2697 475.054 20.0597 474.202 20.0597 473.23C20.0597 472.258 20.2697 471.412 20.6897 470.692C21.1097 469.96 21.6797 469.39 22.3997 468.982C23.1317 468.574 23.9597 468.37 24.8837 468.37C25.7117 468.37 26.4497 468.55 27.0977 468.91C27.7457 469.27 28.2557 469.81 28.6277 470.53C29.0117 471.25 29.2037 472.15 29.2037 473.23C29.2037 474.31 29.0057 475.21 28.6097 475.93C28.2257 476.65 27.7097 477.196 27.0617 477.568C26.4137 477.928 25.6877 478.108 24.8837 478.108ZM25.0277 476.596C25.6277 476.596 26.1677 476.458 26.6477 476.182C27.1397 475.906 27.5237 475.516 27.7997 475.012C28.0877 474.496 28.2317 473.902 28.2317 473.23C28.2317 472.546 28.0877 471.958 27.7997 471.466C27.5237 470.962 27.1397 470.572 26.6477 470.296C26.1677 470.02 25.6277 469.882 25.0277 469.882C24.4157 469.882 23.8697 470.02 23.3897 470.296C22.9097 470.572 22.5257 470.962 22.2377 471.466C21.9497 471.958 21.8057 472.546 21.8057 473.23C21.8057 473.902 21.9497 474.496 22.2377 475.012C22.5257 475.516 22.9097 475.906 23.3897 476.182C23.8697 476.458 24.4157 476.596 25.0277 476.596ZM28.2137 481.492V475.462L28.3937 473.248L28.2857 471.034V468.46H29.9417V481.492H28.2137ZM37.2252 478.108C36.4092 478.108 35.6892 477.958 35.0652 477.658C34.4532 477.358 33.9732 476.902 33.6252 476.29C33.2892 475.666 33.1212 474.886 33.1212 473.95V468.46H34.8492V473.752C34.8492 474.688 35.0712 475.39 35.5152 475.858C35.9712 476.326 36.6072 476.56 37.4232 476.56C38.0232 476.56 38.5452 476.44 38.9892 476.2C39.4332 475.948 39.7752 475.588 40.0152 475.12C40.2552 474.64 40.3752 474.064 40.3752 473.392V468.46H42.1032V478H40.4652V475.426L40.7352 476.11C40.4232 476.746 39.9552 477.238 39.3312 477.586C38.7072 477.934 38.0052 478.108 37.2252 478.108ZM45.3929 478V468.46H47.1209V478H45.3929ZM46.2569 466.624C45.9209 466.624 45.6389 466.516 45.4109 466.3C45.1949 466.084 45.0869 465.82 45.0869 465.508C45.0869 465.184 45.1949 464.914 45.4109 464.698C45.6389 464.482 45.9209 464.374 46.2569 464.374C46.5929 464.374 46.8689 464.482 47.0849 464.698C47.3129 464.902 47.4269 465.16 47.4269 465.472C47.4269 465.796 47.3189 466.072 47.1029 466.3C46.8869 466.516 46.6049 466.624 46.2569 466.624ZM54.3622 478.108C53.4382 478.108 52.6102 477.904 51.8782 477.496C51.1582 477.088 50.5882 476.518 50.1682 475.786C49.7482 475.054 49.5382 474.202 49.5382 473.23C49.5382 472.258 49.7482 471.412 50.1682 470.692C50.5882 469.96 51.1582 469.39 51.8782 468.982C52.6102 468.574 53.4382 468.37 54.3622 468.37C55.1662 468.37 55.8922 468.55 56.5402 468.91C57.1882 469.27 57.7042 469.81 58.0882 470.53C58.4842 471.25 58.6822 472.15 58.6822 473.23C58.6822 474.31 58.4902 475.21 58.1062 475.93C57.7342 476.65 57.2242 477.196 56.5762 477.568C55.9282 477.928 55.1902 478.108 54.3622 478.108ZM54.5062 476.596C55.1062 476.596 55.6462 476.458 56.1262 476.182C56.6182 475.906 57.0022 475.516 57.2782 475.012C57.5662 474.496 57.7102 473.902 57.7102 473.23C57.7102 472.546 57.5662 471.958 57.2782 471.466C57.0022 470.962 56.6182 470.572 56.1262 470.296C55.6462 470.02 55.1062 469.882 54.5062 469.882C53.8942 469.882 53.3482 470.02 52.8682 470.296C52.3882 470.572 52.0042 470.962 51.7162 471.466C51.4282 471.958 51.2842 472.546 51.2842 473.23C51.2842 473.902 51.4282 474.496 51.7162 475.012C52.0042 475.516 52.3882 475.906 52.8682 476.182C53.3482 476.458 53.8942 476.596 54.5062 476.596ZM57.7642 478V475.426L57.8722 473.212L57.6922 470.998V464.644H59.4202V478H57.7642ZM62.6898 478V468.46H64.4178V478H62.6898ZM63.5538 466.624C63.2178 466.624 62.9358 466.516 62.7078 466.3C62.4918 466.084 62.3838 465.82 62.3838 465.508C62.3838 465.184 62.4918 464.914 62.7078 464.698C62.9358 464.482 63.2178 464.374 63.5538 464.374C63.8898 464.374 64.1658 464.482 64.3818 464.698C64.6098 464.902 64.7238 465.16 64.7238 465.472C64.7238 465.796 64.6158 466.072 64.3998 466.3C64.1838 466.516 63.9018 466.624 63.5538 466.624ZM70.9931 478.108C70.0331 478.108 69.2891 477.85 68.7611 477.334C68.2331 476.818 67.9691 476.08 67.9691 475.12V466.372H69.6971V475.048C69.6971 475.564 69.8231 475.96 70.0751 476.236C70.3391 476.512 70.7111 476.65 71.1911 476.65C71.7311 476.65 72.1811 476.5 72.5411 476.2L73.0811 477.442C72.8171 477.67 72.4991 477.838 72.1271 477.946C71.7671 478.054 71.3891 478.108 70.9931 478.108ZM66.3491 469.882V468.46H72.4331V469.882H66.3491ZM75.4084 481.6C74.9524 481.6 74.5084 481.522 74.0764 481.366C73.6444 481.222 73.2724 481.006 72.9604 480.718L73.6984 479.422C73.9384 479.65 74.2024 479.824 74.4904 479.944C74.7784 480.064 75.0844 480.124 75.4084 480.124C75.8284 480.124 76.1764 480.016 76.4524 479.8C76.7284 479.584 76.9864 479.2 77.2264 478.648L77.8204 477.334L78.0004 477.118L81.7444 468.46H83.4364L78.8104 478.954C78.5344 479.626 78.2224 480.154 77.8744 480.538C77.5384 480.922 77.1664 481.192 76.7584 481.348C76.3504 481.516 75.9004 481.6 75.4084 481.6ZM77.6764 478.306L73.3204 468.46H75.1204L78.8284 476.956L77.6764 478.306ZM3.49254 500V487.4H8.40654C9.51054 487.4 10.4525 487.574 11.2325 487.922C12.0125 488.27 12.6125 488.774 13.0325 489.434C13.4525 490.094 13.6625 490.88 13.6625 491.792C13.6625 492.704 13.4525 493.49 13.0325 494.15C12.6125 494.798 12.0125 495.302 11.2325 495.662C10.4525 496.01 9.51054 496.184 8.40654 496.184H4.48254L5.29254 495.338V500H3.49254ZM5.29254 495.518L4.48254 494.618H8.35254C9.50454 494.618 10.3745 494.372 10.9625 493.88C11.5625 493.388 11.8625 492.692 11.8625 491.792C11.8625 490.892 11.5625 490.196 10.9625 489.704C10.3745 489.212 9.50454 488.966 8.35254 488.966H4.48254L5.29254 488.066V495.518ZM15.8968 500V490.46H17.5528V493.052L17.3908 492.404C17.6548 491.744 18.0988 491.24 18.7228 490.892C19.3468 490.544 20.1148 490.37 21.0268 490.37V492.044C20.9548 492.032 20.8828 492.026 20.8108 492.026C20.7508 492.026 20.6908 492.026 20.6308 492.026C19.7068 492.026 18.9748 492.302 18.4348 492.854C17.8948 493.406 17.6248 494.204 17.6248 495.248V500H15.8968ZM27.1547 500.108C26.1947 500.108 25.3427 499.898 24.5987 499.478C23.8547 499.058 23.2667 498.482 22.8347 497.75C22.4027 497.006 22.1867 496.166 22.1867 495.23C22.1867 494.282 22.4027 493.442 22.8347 492.71C23.2667 491.978 23.8547 491.408 24.5987 491C25.3427 490.58 26.1947 490.37 27.1547 490.37C28.1027 490.37 28.9487 490.58 29.6927 491C30.4487 491.408 31.0367 491.978 31.4567 492.71C31.8887 493.43 32.1047 494.27 32.1047 495.23C32.1047 496.178 31.8887 497.018 31.4567 497.75C31.0367 498.482 30.4487 499.058 29.6927 499.478C28.9487 499.898 28.1027 500.108 27.1547 500.108ZM27.1547 498.596C27.7667 498.596 28.3127 498.458 28.7927 498.182C29.2847 497.906 29.6687 497.516 29.9447 497.012C30.2207 496.496 30.3587 495.902 30.3587 495.23C30.3587 494.546 30.2207 493.958 29.9447 493.466C29.6687 492.962 29.2847 492.572 28.7927 492.296C28.3127 492.02 27.7667 491.882 27.1547 491.882C26.5427 491.882 25.9967 492.02 25.5167 492.296C25.0367 492.572 24.6527 492.962 24.3647 493.466C24.0767 493.958 23.9327 494.546 23.9327 495.23C23.9327 495.902 24.0767 496.496 24.3647 497.012C24.6527 497.516 25.0367 497.906 25.5167 498.182C25.9967 498.458 26.5427 498.596 27.1547 498.596ZM36.7328 500L32.5568 490.46H34.3568L38.0648 499.1H37.2008L40.9808 490.46H42.6728L38.4968 500H36.7328ZM44.2855 500V490.46H46.0135V500H44.2855ZM45.1495 488.624C44.8135 488.624 44.5315 488.516 44.3035 488.3C44.0875 488.084 43.9795 487.82 43.9795 487.508C43.9795 487.184 44.0875 486.914 44.3035 486.698C44.5315 486.482 44.8135 486.374 45.1495 486.374C45.4855 486.374 45.7615 486.482 45.9775 486.698C46.2055 486.902 46.3195 487.16 46.3195 487.472C46.3195 487.796 46.2115 488.072 45.9955 488.3C45.7795 488.516 45.4975 488.624 45.1495 488.624ZM52.0488 500.108C51.2568 500.108 50.5008 500 49.7808 499.784C49.0728 499.568 48.5148 499.304 48.1068 498.992L48.8268 497.624C49.2348 497.9 49.7388 498.134 50.3388 498.326C50.9388 498.518 51.5508 498.614 52.1748 498.614C52.9788 498.614 53.5548 498.5 53.9028 498.272C54.2628 498.044 54.4428 497.726 54.4428 497.318C54.4428 497.018 54.3348 496.784 54.1188 496.616C53.9028 496.448 53.6148 496.322 53.2548 496.238C52.9068 496.154 52.5168 496.082 52.0848 496.022C51.6528 495.95 51.2208 495.866 50.7888 495.77C50.3568 495.662 49.9608 495.518 49.6008 495.338C49.2408 495.146 48.9528 494.888 48.7368 494.564C48.5208 494.228 48.4128 493.784 48.4128 493.232C48.4128 492.656 48.5748 492.152 48.8988 491.72C49.2228 491.288 49.6788 490.958 50.2668 490.73C50.8668 490.49 51.5748 490.37 52.3908 490.37C53.0148 490.37 53.6448 490.448 54.2808 490.604C54.9288 490.748 55.4568 490.958 55.8648 491.234L55.1268 492.602C54.6948 492.314 54.2448 492.116 53.7768 492.008C53.3088 491.9 52.8408 491.846 52.3728 491.846C51.6168 491.846 51.0528 491.972 50.6808 492.224C50.3088 492.464 50.1228 492.776 50.1228 493.16C50.1228 493.484 50.2308 493.736 50.4468 493.916C50.6748 494.084 50.9628 494.216 51.3108 494.312C51.6708 494.408 52.0668 494.492 52.4988 494.564C52.9308 494.624 53.3628 494.708 53.7948 494.816C54.2268 494.912 54.6168 495.05 54.9648 495.23C55.3248 495.41 55.6128 495.662 55.8288 495.986C56.0568 496.31 56.1708 496.742 56.1708 497.282C56.1708 497.858 56.0028 498.356 55.6668 498.776C55.3308 499.196 54.8568 499.526 54.2448 499.766C53.6328 499.994 52.9008 500.108 52.0488 500.108ZM58.3304 500V490.46H60.0584V500H58.3304ZM59.1944 488.624C58.8584 488.624 58.5764 488.516 58.3484 488.3C58.1324 488.084 58.0244 487.82 58.0244 487.508C58.0244 487.184 58.1324 486.914 58.3484 486.698C58.5764 486.482 58.8584 486.374 59.1944 486.374C59.5304 486.374 59.8064 486.482 60.0224 486.698C60.2504 486.902 60.3644 487.16 60.3644 487.472C60.3644 487.796 60.2564 488.072 60.0404 488.3C59.8244 488.516 59.5424 488.624 59.1944 488.624ZM67.4437 500.108C66.4837 500.108 65.6317 499.898 64.8877 499.478C64.1437 499.058 63.5557 498.482 63.1237 497.75C62.6917 497.006 62.4757 496.166 62.4757 495.23C62.4757 494.282 62.6917 493.442 63.1237 492.71C63.5557 491.978 64.1437 491.408 64.8877 491C65.6317 490.58 66.4837 490.37 67.4437 490.37C68.3917 490.37 69.2377 490.58 69.9817 491C70.7377 491.408 71.3257 491.978 71.7457 492.71C72.1777 493.43 72.3937 494.27 72.3937 495.23C72.3937 496.178 72.1777 497.018 71.7457 497.75C71.3257 498.482 70.7377 499.058 69.9817 499.478C69.2377 499.898 68.3917 500.108 67.4437 500.108ZM67.4437 498.596C68.0557 498.596 68.6017 498.458 69.0817 498.182C69.5737 497.906 69.9577 497.516 70.2337 497.012C70.5097 496.496 70.6477 495.902 70.6477 495.23C70.6477 494.546 70.5097 493.958 70.2337 493.466C69.9577 492.962 69.5737 492.572 69.0817 492.296C68.6017 492.02 68.0557 491.882 67.4437 491.882C66.8317 491.882 66.2857 492.02 65.8057 492.296C65.3257 492.572 64.9417 492.962 64.6537 493.466C64.3657 493.958 64.2217 494.546 64.2217 495.23C64.2217 495.902 64.3657 496.496 64.6537 497.012C64.9417 497.516 65.3257 497.906 65.8057 498.182C66.2857 498.458 66.8317 498.596 67.4437 498.596ZM79.8775 490.37C80.6575 490.37 81.3415 490.52 81.9295 490.82C82.5295 491.12 82.9975 491.576 83.3335 492.188C83.6695 492.8 83.8375 493.574 83.8375 494.51V500H82.1095V494.708C82.1095 493.784 81.8815 493.088 81.4255 492.62C80.9815 492.152 80.3515 491.918 79.5355 491.918C78.9235 491.918 78.3895 492.038 77.9335 492.278C77.4775 492.518 77.1235 492.872 76.8715 493.34C76.6315 493.808 76.5115 494.39 76.5115 495.086V500H74.7835V490.46H76.4395V493.034L76.1695 492.35C76.4815 491.726 76.9615 491.24 77.6095 490.892C78.2575 490.544 79.0135 490.37 79.8775 490.37Z" fill="#7A7A7A"/>
<path d="M40.2209 187.677C40.8954 181.599 46.0325 177 52.1477 177H93.5947C100.746 177 106.31 183.216 105.521 190.324L77.7791 440.323C77.1046 446.401 71.9675 451 65.8523 451H24.4053C17.2538 451 11.6898 444.784 12.4785 437.676L40.2209 187.677Z" fill="#F2F2F2"/>
<path d="M162.598 43.1315C163.053 36.8575 168.276 32 174.566 32H216.098C223.067 32 228.571 37.9173 228.066 44.8685L199.402 439.869C198.947 446.142 193.724 451 187.434 451H145.902C138.933 451 133.429 445.083 133.934 438.132L162.598 43.1315Z" fill="#F2F2F2"/>
<path d="M283.67 286.934C284.673 281.191 289.66 277 295.491 277H336.721C344.175 277 349.825 283.723 348.542 291.066L322.33 441.066C321.327 446.809 316.34 451 310.509 451H269.279C261.825 451 256.175 444.277 257.458 436.934L283.67 286.934Z" fill="#F2F2F2"/>
<path d="M406.423 123.925C406.979 117.739 412.164 113 418.375 113H459.872C466.924 113 472.456 119.052 471.824 126.075L443.577 440.075C443.021 446.261 437.836 451 431.625 451H390.128C383.076 451 377.544 444.948 378.176 437.925L406.423 123.925Z" fill="#F2F2F2"/>
<path d="M11 168C11 161.373 16.3726 156 23 156H65C71.6274 156 77 161.373 77 168V447C77 449.209 75.2091 451 73 451H15C12.7909 451 11 449.209 11 447V168Z" fill="url(#paint0_linear_300_1095)"/>
<path d="M133 12C133 5.37257 138.373 0 145 0H187C193.627 0 199 5.37258 199 12V447C199 449.209 197.209 451 195 451H137C134.791 451 133 449.209 133 447V12Z" fill="url(#paint1_linear_300_1095)"/>
<path d="M147.156 438L152.862 425.4H154.644L160.368 438H158.478L153.384 426.408H154.104L149.01 438H147.156ZM149.586 434.85L150.072 433.41H157.164L157.686 434.85H149.586ZM162.247 438V425.4H167.161C168.265 425.4 169.207 425.574 169.987 425.922C170.767 426.27 171.367 426.774 171.787 427.434C172.207 428.094 172.417 428.88 172.417 429.792C172.417 430.704 172.207 431.49 171.787 432.15C171.367 432.798 170.767 433.302 169.987 433.662C169.207 434.01 168.265 434.184 167.161 434.184H163.237L164.047 433.338V438H162.247ZM164.047 433.518L163.237 432.618H167.107C168.259 432.618 169.129 432.372 169.717 431.88C170.317 431.388 170.617 430.692 170.617 429.792C170.617 428.892 170.317 428.196 169.717 427.704C169.129 427.212 168.259 426.966 167.107 426.966H163.237L164.047 426.066V433.518ZM178.104 438V433.176L178.518 434.292L173.1 425.4H175.026L179.58 432.906H178.536L183.108 425.4H184.89L179.49 434.292L179.886 433.176V438H178.104Z" fill="white"/>
<path d="M255 275C255 268.373 260.373 263 267 263H309C315.627 263 321 268.373 321 275V447C321 449.209 319.209 451 317 451H259C256.791 451 255 449.209 255 447V275Z" fill="url(#paint2_linear_300_1095)"/>
<path d="M377 100C377 93.3726 382.373 88 389 88H431C437.627 88 443 93.3726 443 100V447C443 449.209 441.209 451 439 451H381C378.791 451 377 449.209 377 447V100Z" fill="url(#paint3_linear_300_1095)"/>
<path d="M25.1558 438L30.8618 425.4H32.6438L38.3678 438H36.4778L31.3838 426.408H32.1038L27.0098 438H25.1558ZM27.5858 434.85L28.0718 433.41H35.1638L35.6858 434.85H27.5858ZM40.2474 438V425.4H45.1614C46.2654 425.4 47.2074 425.574 47.9874 425.922C48.7674 426.27 49.3674 426.774 49.7874 427.434C50.2074 428.094 50.4174 428.88 50.4174 429.792C50.4174 430.704 50.2074 431.49 49.7874 432.15C49.3674 432.798 48.7674 433.302 47.9874 433.662C47.2074 434.01 46.2654 434.184 45.1614 434.184H41.2374L42.0474 433.338V438H40.2474ZM42.0474 433.518L41.2374 432.618H45.1074C46.2594 432.618 47.1294 432.372 47.7174 431.88C48.3174 431.388 48.6174 430.692 48.6174 429.792C48.6174 428.892 48.3174 428.196 47.7174 427.704C47.1294 427.212 46.2594 426.966 45.1074 426.966H41.2374L42.0474 426.066V433.518ZM56.1039 438V433.176L56.5179 434.292L51.0999 425.4H53.0259L57.5799 432.906H56.5359L61.1079 425.4H62.8899L57.4899 434.292L57.8859 433.176V438H56.1039Z" fill="white"/>
<path d="M129.983 478V465.4H131.783V476.434H138.605V478H129.983ZM144.543 478.108C143.523 478.108 142.623 477.898 141.843 477.478C141.075 477.058 140.475 476.482 140.043 475.75C139.623 475.018 139.413 474.178 139.413 473.23C139.413 472.282 139.617 471.442 140.025 470.71C140.445 469.978 141.015 469.408 141.735 469C142.467 468.58 143.289 468.37 144.201 468.37C145.125 468.37 145.941 468.574 146.649 468.982C147.357 469.39 147.909 469.966 148.305 470.71C148.713 471.442 148.917 472.3 148.917 473.284C148.917 473.356 148.911 473.44 148.899 473.536C148.899 473.632 148.893 473.722 148.881 473.806H140.763V472.564H147.981L147.279 472.996C147.291 472.384 147.165 471.838 146.901 471.358C146.637 470.878 146.271 470.506 145.803 470.242C145.347 469.966 144.813 469.828 144.201 469.828C143.601 469.828 143.067 469.966 142.599 470.242C142.131 470.506 141.765 470.884 141.501 471.376C141.237 471.856 141.105 472.408 141.105 473.032V473.32C141.105 473.956 141.249 474.526 141.537 475.03C141.837 475.522 142.251 475.906 142.779 476.182C143.307 476.458 143.913 476.596 144.597 476.596C145.161 476.596 145.671 476.5 146.127 476.308C146.595 476.116 147.003 475.828 147.351 475.444L148.305 476.56C147.873 477.064 147.333 477.448 146.685 477.712C146.049 477.976 145.335 478.108 144.543 478.108ZM156.411 468.37C157.191 468.37 157.875 468.52 158.463 468.82C159.063 469.12 159.531 469.576 159.867 470.188C160.203 470.8 160.371 471.574 160.371 472.51V478H158.643V472.708C158.643 471.784 158.415 471.088 157.959 470.62C157.515 470.152 156.885 469.918 156.069 469.918C155.457 469.918 154.923 470.038 154.467 470.278C154.011 470.518 153.657 470.872 153.405 471.34C153.165 471.808 153.045 472.39 153.045 473.086V478H151.317V468.46H152.973V471.034L152.703 470.35C153.015 469.726 153.495 469.24 154.143 468.892C154.791 468.544 155.547 468.37 156.411 468.37ZM167.511 478.108C166.587 478.108 165.759 477.904 165.027 477.496C164.307 477.088 163.737 476.518 163.317 475.786C162.897 475.054 162.687 474.202 162.687 473.23C162.687 472.258 162.897 471.412 163.317 470.692C163.737 469.96 164.307 469.39 165.027 468.982C165.759 468.574 166.587 468.37 167.511 468.37C168.315 468.37 169.041 468.55 169.689 468.91C170.337 469.27 170.853 469.81 171.237 470.53C171.633 471.25 171.831 472.15 171.831 473.23C171.831 474.31 171.639 475.21 171.255 475.93C170.883 476.65 170.373 477.196 169.725 477.568C169.077 477.928 168.339 478.108 167.511 478.108ZM167.655 476.596C168.255 476.596 168.795 476.458 169.275 476.182C169.767 475.906 170.151 475.516 170.427 475.012C170.715 474.496 170.859 473.902 170.859 473.23C170.859 472.546 170.715 471.958 170.427 471.466C170.151 470.962 169.767 470.572 169.275 470.296C168.795 470.02 168.255 469.882 167.655 469.882C167.043 469.882 166.497 470.02 166.017 470.296C165.537 470.572 165.153 470.962 164.865 471.466C164.577 471.958 164.433 472.546 164.433 473.23C164.433 473.902 164.577 474.496 164.865 475.012C165.153 475.516 165.537 475.906 166.017 476.182C166.497 476.458 167.043 476.596 167.655 476.596ZM170.913 478V475.426L171.021 473.212L170.841 470.998V464.644H172.569V478H170.913ZM175.838 478V468.46H177.566V478H175.838ZM176.702 466.624C176.366 466.624 176.084 466.516 175.856 466.3C175.64 466.084 175.532 465.82 175.532 465.508C175.532 465.184 175.64 464.914 175.856 464.698C176.084 464.482 176.366 464.374 176.702 464.374C177.038 464.374 177.314 464.482 177.53 464.698C177.758 464.902 177.872 465.16 177.872 465.472C177.872 465.796 177.764 466.072 177.548 466.3C177.332 466.516 177.05 466.624 176.702 466.624ZM185.96 468.37C186.74 468.37 187.424 468.52 188.012 468.82C188.612 469.12 189.08 469.576 189.416 470.188C189.752 470.8 189.92 471.574 189.92 472.51V478H188.192V472.708C188.192 471.784 187.964 471.088 187.508 470.62C187.064 470.152 186.434 469.918 185.618 469.918C185.006 469.918 184.472 470.038 184.016 470.278C183.56 470.518 183.206 470.872 182.954 471.34C182.714 471.808 182.594 472.39 182.594 473.086V478H180.866V468.46H182.522V471.034L182.252 470.35C182.564 469.726 183.044 469.24 183.692 468.892C184.34 468.544 185.096 468.37 185.96 468.37ZM197.293 481.6C196.417 481.6 195.565 481.474 194.737 481.222C193.921 480.982 193.255 480.634 192.739 480.178L193.567 478.846C194.011 479.23 194.557 479.53 195.205 479.746C195.853 479.974 196.531 480.088 197.239 480.088C198.367 480.088 199.195 479.824 199.723 479.296C200.251 478.768 200.515 477.964 200.515 476.884V474.868L200.695 472.978L200.605 471.07V468.46H202.243V476.704C202.243 478.384 201.823 479.62 200.983 480.412C200.143 481.204 198.913 481.6 197.293 481.6ZM197.077 477.604C196.153 477.604 195.325 477.412 194.593 477.028C193.873 476.632 193.297 476.086 192.865 475.39C192.445 474.694 192.235 473.89 192.235 472.978C192.235 472.054 192.445 471.25 192.865 470.566C193.297 469.87 193.873 469.33 194.593 468.946C195.325 468.562 196.153 468.37 197.077 468.37C197.893 468.37 198.637 468.538 199.309 468.874C199.981 469.198 200.515 469.702 200.911 470.386C201.319 471.07 201.523 471.934 201.523 472.978C201.523 474.01 201.319 474.868 200.911 475.552C200.515 476.236 199.981 476.752 199.309 477.1C198.637 477.436 197.893 477.604 197.077 477.604ZM197.275 476.092C197.911 476.092 198.475 475.96 198.967 475.696C199.459 475.432 199.843 475.066 200.119 474.598C200.407 474.13 200.551 473.59 200.551 472.978C200.551 472.366 200.407 471.826 200.119 471.358C199.843 470.89 199.459 470.53 198.967 470.278C198.475 470.014 197.911 469.882 197.275 469.882C196.639 469.882 196.069 470.014 195.565 470.278C195.073 470.53 194.683 470.89 194.395 471.358C194.119 471.826 193.981 472.366 193.981 472.978C193.981 473.59 194.119 474.13 194.395 474.598C194.683 475.066 195.073 475.432 195.565 475.696C196.069 475.96 196.639 476.092 197.275 476.092Z" fill="#7A7A7A"/>
<path d="M263.689 478L269.395 465.4H271.177L276.901 478H275.011L269.917 466.408H270.637L265.543 478H263.689ZM266.119 474.85L266.605 473.41H273.697L274.219 474.85H266.119ZM282.367 478.108C281.551 478.108 280.831 477.958 280.207 477.658C279.595 477.358 279.115 476.902 278.767 476.29C278.431 475.666 278.263 474.886 278.263 473.95V468.46H279.991V473.752C279.991 474.688 280.213 475.39 280.657 475.858C281.113 476.326 281.749 476.56 282.565 476.56C283.165 476.56 283.687 476.44 284.131 476.2C284.575 475.948 284.917 475.588 285.157 475.12C285.397 474.64 285.517 474.064 285.517 473.392V468.46H287.245V478H285.607V475.426L285.877 476.11C285.565 476.746 285.097 477.238 284.473 477.586C283.849 477.934 283.147 478.108 282.367 478.108ZM293.81 478.108C292.85 478.108 292.106 477.85 291.578 477.334C291.05 476.818 290.786 476.08 290.786 475.12V466.372H292.514V475.048C292.514 475.564 292.64 475.96 292.892 476.236C293.156 476.512 293.528 476.65 294.008 476.65C294.548 476.65 294.998 476.5 295.358 476.2L295.898 477.442C295.634 477.67 295.316 477.838 294.944 477.946C294.584 478.054 294.206 478.108 293.81 478.108ZM289.166 469.882V468.46H295.25V469.882H289.166ZM301.757 478.108C300.797 478.108 299.945 477.898 299.201 477.478C298.457 477.058 297.869 476.482 297.437 475.75C297.005 475.006 296.789 474.166 296.789 473.23C296.789 472.282 297.005 471.442 297.437 470.71C297.869 469.978 298.457 469.408 299.201 469C299.945 468.58 300.797 468.37 301.757 468.37C302.705 468.37 303.551 468.58 304.295 469C305.051 469.408 305.639 469.978 306.059 470.71C306.491 471.43 306.707 472.27 306.707 473.23C306.707 474.178 306.491 475.018 306.059 475.75C305.639 476.482 305.051 477.058 304.295 477.478C303.551 477.898 302.705 478.108 301.757 478.108ZM301.757 476.596C302.369 476.596 302.915 476.458 303.395 476.182C303.887 475.906 304.271 475.516 304.547 475.012C304.823 474.496 304.961 473.902 304.961 473.23C304.961 472.546 304.823 471.958 304.547 471.466C304.271 470.962 303.887 470.572 303.395 470.296C302.915 470.02 302.369 469.882 301.757 469.882C301.145 469.882 300.599 470.02 300.119 470.296C299.639 470.572 299.255 470.962 298.967 471.466C298.679 471.958 298.535 472.546 298.535 473.23C298.535 473.902 298.679 474.496 298.967 475.012C299.255 475.516 299.639 475.906 300.119 476.182C300.599 476.458 301.145 476.596 301.757 476.596ZM250.374 500V487.4H255.288C256.392 487.4 257.334 487.574 258.114 487.922C258.894 488.27 259.494 488.774 259.914 489.434C260.334 490.094 260.544 490.88 260.544 491.792C260.544 492.704 260.334 493.49 259.914 494.15C259.494 494.798 258.894 495.296 258.114 495.644C257.334 495.992 256.392 496.166 255.288 496.166H251.364L252.174 495.338V500H250.374ZM258.798 500L255.594 495.428H257.52L260.76 500H258.798ZM252.174 495.518L251.364 494.636H255.234C256.386 494.636 257.256 494.39 257.844 493.898C258.444 493.394 258.744 492.692 258.744 491.792C258.744 490.892 258.444 490.196 257.844 489.704C257.256 489.212 256.386 488.966 255.234 488.966H251.364L252.174 488.066V495.518ZM267.449 500.108C266.429 500.108 265.529 499.898 264.749 499.478C263.981 499.058 263.381 498.482 262.949 497.75C262.529 497.018 262.319 496.178 262.319 495.23C262.319 494.282 262.523 493.442 262.931 492.71C263.351 491.978 263.921 491.408 264.641 491C265.373 490.58 266.195 490.37 267.107 490.37C268.031 490.37 268.847 490.574 269.555 490.982C270.263 491.39 270.815 491.966 271.211 492.71C271.619 493.442 271.823 494.3 271.823 495.284C271.823 495.356 271.817 495.44 271.805 495.536C271.805 495.632 271.799 495.722 271.787 495.806H263.669V494.564H270.887L270.185 494.996C270.197 494.384 270.071 493.838 269.807 493.358C269.543 492.878 269.177 492.506 268.709 492.242C268.253 491.966 267.719 491.828 267.107 491.828C266.507 491.828 265.973 491.966 265.505 492.242C265.037 492.506 264.671 492.884 264.407 493.376C264.143 493.856 264.011 494.408 264.011 495.032V495.32C264.011 495.956 264.155 496.526 264.443 497.03C264.743 497.522 265.157 497.906 265.685 498.182C266.213 498.458 266.819 498.596 267.503 498.596C268.067 498.596 268.577 498.5 269.033 498.308C269.501 498.116 269.909 497.828 270.257 497.444L271.211 498.56C270.779 499.064 270.239 499.448 269.591 499.712C268.955 499.976 268.241 500.108 267.449 500.108ZM276.062 500L272.516 490.46H274.154L277.304 499.1H276.53L279.806 490.46H281.264L284.468 499.1H283.712L286.934 490.46H288.482L284.918 500H283.262L280.256 492.116H280.76L277.718 500H276.062ZM295.859 500V497.984L295.769 497.606V494.168C295.769 493.436 295.553 492.872 295.121 492.476C294.701 492.068 294.065 491.864 293.213 491.864C292.649 491.864 292.097 491.96 291.557 492.152C291.017 492.332 290.561 492.578 290.189 492.89L289.469 491.594C289.961 491.198 290.549 490.898 291.233 490.694C291.929 490.478 292.655 490.37 293.411 490.37C294.719 490.37 295.727 490.688 296.435 491.324C297.143 491.96 297.497 492.932 297.497 494.24V500H295.859ZM292.727 500.108C292.019 500.108 291.395 499.988 290.855 499.748C290.327 499.508 289.919 499.178 289.631 498.758C289.343 498.326 289.199 497.84 289.199 497.3C289.199 496.784 289.319 496.316 289.559 495.896C289.811 495.476 290.213 495.14 290.765 494.888C291.329 494.636 292.085 494.51 293.033 494.51H296.057V495.752H293.105C292.241 495.752 291.659 495.896 291.359 496.184C291.059 496.472 290.909 496.82 290.909 497.228C290.909 497.696 291.095 498.074 291.467 498.362C291.839 498.638 292.355 498.776 293.015 498.776C293.663 498.776 294.227 498.632 294.707 498.344C295.199 498.056 295.553 497.636 295.769 497.084L296.111 498.272C295.883 498.836 295.481 499.286 294.905 499.622C294.329 499.946 293.603 500.108 292.727 500.108ZM300.695 500V490.46H302.351V493.052L302.189 492.404C302.453 491.744 302.897 491.24 303.521 490.892C304.145 490.544 304.913 490.37 305.825 490.37V492.044C305.753 492.032 305.681 492.026 305.609 492.026C305.549 492.026 305.489 492.026 305.429 492.026C304.505 492.026 303.773 492.302 303.233 492.854C302.693 493.406 302.423 494.204 302.423 495.248V500H300.695ZM311.809 500.108C310.885 500.108 310.057 499.904 309.325 499.496C308.605 499.088 308.035 498.518 307.615 497.786C307.195 497.054 306.985 496.202 306.985 495.23C306.985 494.258 307.195 493.412 307.615 492.692C308.035 491.96 308.605 491.39 309.325 490.982C310.057 490.574 310.885 490.37 311.809 490.37C312.613 490.37 313.339 490.55 313.987 490.91C314.635 491.27 315.151 491.81 315.535 492.53C315.931 493.25 316.129 494.15 316.129 495.23C316.129 496.31 315.937 497.21 315.553 497.93C315.181 498.65 314.671 499.196 314.023 499.568C313.375 499.928 312.637 500.108 311.809 500.108ZM311.953 498.596C312.553 498.596 313.093 498.458 313.573 498.182C314.065 497.906 314.449 497.516 314.725 497.012C315.013 496.496 315.157 495.902 315.157 495.23C315.157 494.546 315.013 493.958 314.725 493.466C314.449 492.962 314.065 492.572 313.573 492.296C313.093 492.02 312.553 491.882 311.953 491.882C311.341 491.882 310.795 492.02 310.315 492.296C309.835 492.572 309.451 492.962 309.163 493.466C308.875 493.958 308.731 494.546 308.731 495.23C308.731 495.902 308.875 496.496 309.163 497.012C309.451 497.516 309.835 497.906 310.315 498.182C310.795 498.458 311.341 498.596 311.953 498.596ZM315.211 500V497.426L315.319 495.212L315.139 492.998V486.644H316.867V500H315.211ZM322.872 500.108C322.08 500.108 321.324 500 320.604 499.784C319.896 499.568 319.338 499.304 318.93 498.992L319.65 497.624C320.058 497.9 320.562 498.134 321.162 498.326C321.762 498.518 322.374 498.614 322.998 498.614C323.802 498.614 324.378 498.5 324.726 498.272C325.086 498.044 325.266 497.726 325.266 497.318C325.266 497.018 325.158 496.784 324.942 496.616C324.726 496.448 324.438 496.322 324.078 496.238C323.73 496.154 323.34 496.082 322.908 496.022C322.476 495.95 322.044 495.866 321.612 495.77C321.18 495.662 320.784 495.518 320.424 495.338C320.064 495.146 319.776 494.888 319.56 494.564C319.344 494.228 319.236 493.784 319.236 493.232C319.236 492.656 319.398 492.152 319.722 491.72C320.046 491.288 320.502 490.958 321.09 490.73C321.69 490.49 322.398 490.37 323.214 490.37C323.838 490.37 324.468 490.448 325.104 490.604C325.752 490.748 326.28 490.958 326.688 491.234L325.95 492.602C325.518 492.314 325.068 492.116 324.6 492.008C324.132 491.9 323.664 491.846 323.196 491.846C322.44 491.846 321.876 491.972 321.504 492.224C321.132 492.464 320.946 492.776 320.946 493.16C320.946 493.484 321.054 493.736 321.27 493.916C321.498 494.084 321.786 494.216 322.134 494.312C322.494 494.408 322.89 494.492 323.322 494.564C323.754 494.624 324.186 494.708 324.618 494.816C325.05 494.912 325.44 495.05 325.788 495.23C326.148 495.41 326.436 495.662 326.652 495.986C326.88 496.31 326.994 496.742 326.994 497.282C326.994 497.858 326.826 498.356 326.49 498.776C326.154 499.196 325.68 499.526 325.068 499.766C324.456 499.994 323.724 500.108 322.872 500.108Z" fill="#7A7A7A"/>
<path d="M379.967 478.144C379.007 478.144 378.089 478 377.213 477.712C376.337 477.412 375.647 477.028 375.143 476.56L375.809 475.156C376.289 475.576 376.901 475.924 377.645 476.2C378.389 476.476 379.163 476.614 379.967 476.614C380.699 476.614 381.293 476.53 381.749 476.362C382.205 476.194 382.541 475.966 382.757 475.678C382.973 475.378 383.081 475.042 383.081 474.67C383.081 474.238 382.937 473.89 382.649 473.626C382.373 473.362 382.007 473.152 381.551 472.996C381.107 472.828 380.615 472.684 380.075 472.564C379.535 472.444 378.989 472.306 378.437 472.15C377.897 471.982 377.399 471.772 376.943 471.52C376.499 471.268 376.139 470.932 375.863 470.512C375.587 470.08 375.449 469.528 375.449 468.856C375.449 468.208 375.617 467.614 375.953 467.074C376.301 466.522 376.829 466.084 377.537 465.76C378.257 465.424 379.169 465.256 380.273 465.256C381.005 465.256 381.731 465.352 382.451 465.544C383.171 465.736 383.795 466.012 384.323 466.372L383.729 467.812C383.189 467.452 382.619 467.194 382.019 467.038C381.419 466.87 380.837 466.786 380.273 466.786C379.565 466.786 378.983 466.876 378.527 467.056C378.071 467.236 377.735 467.476 377.519 467.776C377.315 468.076 377.213 468.412 377.213 468.784C377.213 469.228 377.351 469.582 377.627 469.846C377.915 470.11 378.281 470.32 378.725 470.476C379.181 470.632 379.679 470.776 380.219 470.908C380.759 471.028 381.299 471.166 381.839 471.322C382.391 471.478 382.889 471.682 383.333 471.934C383.789 472.186 384.155 472.522 384.431 472.942C384.707 473.362 384.845 473.902 384.845 474.562C384.845 475.198 384.671 475.792 384.323 476.344C383.975 476.884 383.435 477.322 382.703 477.658C381.983 477.982 381.071 478.144 379.967 478.144ZM390.499 478.108C389.539 478.108 388.795 477.85 388.267 477.334C387.739 476.818 387.475 476.08 387.475 475.12V466.372H389.203V475.048C389.203 475.564 389.329 475.96 389.581 476.236C389.845 476.512 390.217 476.65 390.697 476.65C391.237 476.65 391.687 476.5 392.047 476.2L392.587 477.442C392.323 477.67 392.005 477.838 391.633 477.946C391.273 478.054 390.895 478.108 390.499 478.108ZM385.855 469.882V468.46H391.939V469.882H385.855ZM400.598 478V475.984L400.508 475.606V472.168C400.508 471.436 400.292 470.872 399.86 470.476C399.44 470.068 398.804 469.864 397.952 469.864C397.388 469.864 396.836 469.96 396.296 470.152C395.756 470.332 395.3 470.578 394.928 470.89L394.208 469.594C394.7 469.198 395.288 468.898 395.972 468.694C396.668 468.478 397.394 468.37 398.15 468.37C399.458 468.37 400.466 468.688 401.174 469.324C401.882 469.96 402.236 470.932 402.236 472.24V478H400.598ZM397.466 478.108C396.758 478.108 396.134 477.988 395.594 477.748C395.066 477.508 394.658 477.178 394.37 476.758C394.082 476.326 393.938 475.84 393.938 475.3C393.938 474.784 394.058 474.316 394.298 473.896C394.55 473.476 394.952 473.14 395.504 472.888C396.068 472.636 396.824 472.51 397.772 472.51H400.796V473.752H397.844C396.98 473.752 396.398 473.896 396.098 474.184C395.798 474.472 395.648 474.82 395.648 475.228C395.648 475.696 395.834 476.074 396.206 476.362C396.578 476.638 397.094 476.776 397.754 476.776C398.402 476.776 398.966 476.632 399.446 476.344C399.938 476.056 400.292 475.636 400.508 475.084L400.85 476.272C400.622 476.836 400.22 477.286 399.644 477.622C399.068 477.946 398.342 478.108 397.466 478.108ZM406.838 475.696L406.874 473.482L412.364 468.46H414.452L410.24 472.6L409.304 473.392L406.838 475.696ZM405.434 478V464.644H407.162V478H405.434ZM412.724 478L408.98 473.356L410.096 471.97L414.848 478H412.724ZM416.526 478V468.46H418.254V478H416.526ZM417.39 466.624C417.054 466.624 416.772 466.516 416.544 466.3C416.328 466.084 416.22 465.82 416.22 465.508C416.22 465.184 416.328 464.914 416.544 464.698C416.772 464.482 417.054 464.374 417.39 464.374C417.726 464.374 418.002 464.482 418.218 464.698C418.446 464.902 418.56 465.16 418.56 465.472C418.56 465.796 418.452 466.072 418.236 466.3C418.02 466.516 417.738 466.624 417.39 466.624ZM426.647 468.37C427.427 468.37 428.111 468.52 428.699 468.82C429.299 469.12 429.767 469.576 430.103 470.188C430.439 470.8 430.607 471.574 430.607 472.51V478H428.879V472.708C428.879 471.784 428.651 471.088 428.195 470.62C427.751 470.152 427.121 469.918 426.305 469.918C425.693 469.918 425.159 470.038 424.703 470.278C424.247 470.518 423.893 470.872 423.641 471.34C423.401 471.808 423.281 472.39 423.281 473.086V478H421.553V468.46H423.209V471.034L422.939 470.35C423.251 469.726 423.731 469.24 424.379 468.892C425.027 468.544 425.783 468.37 426.647 468.37ZM437.981 481.6C437.105 481.6 436.253 481.474 435.425 481.222C434.609 480.982 433.943 480.634 433.427 480.178L434.255 478.846C434.699 479.23 435.245 479.53 435.893 479.746C436.541 479.974 437.219 480.088 437.927 480.088C439.055 480.088 439.883 479.824 440.411 479.296C440.939 478.768 441.203 477.964 441.203 476.884V474.868L441.383 472.978L441.293 471.07V468.46H442.931V476.704C442.931 478.384 442.511 479.62 441.671 480.412C440.831 481.204 439.601 481.6 437.981 481.6ZM437.765 477.604C436.841 477.604 436.013 477.412 435.281 477.028C434.561 476.632 433.985 476.086 433.553 475.39C433.133 474.694 432.923 473.89 432.923 472.978C432.923 472.054 433.133 471.25 433.553 470.566C433.985 469.87 434.561 469.33 435.281 468.946C436.013 468.562 436.841 468.37 437.765 468.37C438.581 468.37 439.325 468.538 439.997 468.874C440.669 469.198 441.203 469.702 441.599 470.386C442.007 471.07 442.211 471.934 442.211 472.978C442.211 474.01 442.007 474.868 441.599 475.552C441.203 476.236 440.669 476.752 439.997 477.1C439.325 477.436 438.581 477.604 437.765 477.604ZM437.963 476.092C438.599 476.092 439.163 475.96 439.655 475.696C440.147 475.432 440.531 475.066 440.807 474.598C441.095 474.13 441.239 473.59 441.239 472.978C441.239 472.366 441.095 471.826 440.807 471.358C440.531 470.89 440.147 470.53 439.655 470.278C439.163 470.014 438.599 469.882 437.963 469.882C437.327 469.882 436.757 470.014 436.253 470.278C435.761 470.53 435.371 470.89 435.083 471.358C434.807 471.826 434.669 472.366 434.669 472.978C434.669 473.59 434.807 474.13 435.083 474.598C435.371 475.066 435.761 475.432 436.253 475.696C436.757 475.96 437.327 476.092 437.963 476.092Z" fill="#7A7A7A"/>
<path d="M269.156 438L274.862 425.4H276.644L282.368 438H280.478L275.384 426.408H276.104L271.01 438H269.156ZM271.586 434.85L272.072 433.41H279.164L279.686 434.85H271.586ZM284.247 438V425.4H289.161C290.265 425.4 291.207 425.574 291.987 425.922C292.767 426.27 293.367 426.774 293.787 427.434C294.207 428.094 294.417 428.88 294.417 429.792C294.417 430.704 294.207 431.49 293.787 432.15C293.367 432.798 292.767 433.302 291.987 433.662C291.207 434.01 290.265 434.184 289.161 434.184H285.237L286.047 433.338V438H284.247ZM286.047 433.518L285.237 432.618H289.107C290.259 432.618 291.129 432.372 291.717 431.88C292.317 431.388 292.617 430.692 292.617 429.792C292.617 428.892 292.317 428.196 291.717 427.704C291.129 427.212 290.259 426.966 289.107 426.966H285.237L286.047 426.066V433.518ZM300.104 438V433.176L300.518 434.292L295.1 425.4H297.026L301.58 432.906H300.536L305.108 425.4H306.89L301.49 434.292L301.886 433.176V438H300.104Z" fill="white"/>
<path d="M391.156 438L396.862 425.4H398.644L404.368 438H402.478L397.384 426.408H398.104L393.01 438H391.156ZM393.586 434.85L394.072 433.41H401.164L401.686 434.85H393.586ZM406.247 438V425.4H411.161C412.265 425.4 413.207 425.574 413.987 425.922C414.767 426.27 415.367 426.774 415.787 427.434C416.207 428.094 416.417 428.88 416.417 429.792C416.417 430.704 416.207 431.49 415.787 432.15C415.367 432.798 414.767 433.302 413.987 433.662C413.207 434.01 412.265 434.184 411.161 434.184H407.237L408.047 433.338V438H406.247ZM408.047 433.518L407.237 432.618H411.107C412.259 432.618 413.129 432.372 413.717 431.88C414.317 431.388 414.617 430.692 414.617 429.792C414.617 428.892 414.317 428.196 413.717 427.704C413.129 427.212 412.259 426.966 411.107 426.966H407.237L408.047 426.066V433.518ZM422.104 438V433.176L422.518 434.292L417.1 425.4H419.026L423.58 432.906H422.536L427.108 425.4H428.89L423.49 434.292L423.886 433.176V438H422.104Z" fill="white"/>
<defs>
<linearGradient id="paint0_linear_300_1095" x1="11" y1="211.312" x2="79.5519" y2="212.397" gradientUnits="userSpaceOnUse">
<stop stop-color="#30C917"/>
<stop offset="1" stop-color="#279A13"/>
</linearGradient>
<linearGradient id="paint1_linear_300_1095" x1="133" y1="84.5625" x2="201.562" y2="85.2718" gradientUnits="userSpaceOnUse">
<stop stop-color="#30C917"/>
<stop offset="1" stop-color="#279A13"/>
</linearGradient>
<linearGradient id="paint2_linear_300_1095" x1="255" y1="298.25" x2="323.527" y2="299.951" gradientUnits="userSpaceOnUse">
<stop stop-color="#30C917"/>
<stop offset="1" stop-color="#279A13"/>
</linearGradient>
<linearGradient id="paint3_linear_300_1095" x1="377" y1="156.062" x2="445.558" y2="156.944" gradientUnits="userSpaceOnUse">
<stop stop-color="#30C917"/>
<stop offset="1" stop-color="#279A13"/>
</linearGradient>
</defs>
</svg>
