<svg width="60" height="54" viewBox="0 0 60 54" fill="none" xmlns="http://www.w3.org/2000/svg">
<path d="M44.1765 31.8061C52.9131 31.8061 59.9955 24.7236 59.9955 15.987C59.9955 7.2504 52.9131 0.167969 44.1765 0.167969C35.4398 0.167969 28.3574 7.2504 28.3574 15.987C28.3574 24.7236 35.4398 31.8061 44.1765 31.8061Z" fill="url(#paint0_linear_300_794)"/>
<mask id="path-2-outside-1_300_794" maskUnits="userSpaceOnUse" x="33" y="9" width="24" height="18" fill="black">
<rect fill="white" x="33" y="9" width="24" height="18"/>
<path d="M50.719 12.0731C50.4002 12.076 50.0822 12.1013 49.7678 12.1495C49.4533 12.1977 49.1436 12.2712 48.8414 12.3647C48.2372 12.5537 47.6618 12.8291 47.1512 13.1897C46.6375 13.5478 46.1839 13.9773 45.7381 14.411C45.2931 14.8459 44.8491 15.265 44.365 15.6659C45.3423 16.2305 46.4462 16.5557 47.5805 16.6733C48.7139 16.7942 49.8735 16.6774 50.9569 16.3422C52.0408 16.0074 53.0485 15.4503 53.8888 14.718C54.7291 13.986 55.4215 13.1631 55.8504 12.1582C55.0749 11.4662 54.1515 10.9265 53.1525 10.5863C52.1534 10.2449 51.0791 10.1119 50.0227 10.1813C49.4938 10.2166 48.9705 10.3117 48.4621 10.4538C47.9545 10.5992 47.4631 10.7949 46.9994 11.0395C46.7693 11.1637 46.5445 11.2967 46.3296 11.4454C46.1152 11.5941 45.906 11.7499 45.705 11.9165C45.3018 12.2475 44.9226 12.6069 44.5472 12.9712C44.1714 13.3351 43.7983 13.7044 43.406 14.0575C43.2098 14.234 43.0093 14.4068 42.8005 14.5709C42.5922 14.7358 42.3773 14.8937 42.1512 15.0374C42.0951 15.074 42.0389 15.1105 41.9807 15.1437C41.9228 15.1778 41.8658 15.2131 41.8071 15.2455L41.6292 15.3411C41.5705 15.3739 41.5083 15.4005 41.4479 15.4304L41.3565 15.4744C41.3261 15.4885 41.2943 15.501 41.2635 15.5143C41.2008 15.54 41.1395 15.5679 41.0764 15.5924C40.949 15.6389 40.8224 15.6875 40.6919 15.7245C40.5632 15.7673 40.4297 15.7959 40.2983 15.83L40.0978 15.8691L39.9974 15.8882L39.896 15.9027C39.6263 15.9413 39.3536 15.9592 39.0809 15.9567C38.536 15.9517 37.9927 15.8661 37.4743 15.707C37.2151 15.6273 36.9624 15.5288 36.7188 15.4129C36.4757 15.2958 36.2412 15.1624 36.0181 15.0141C35.1282 14.416 34.4228 13.5702 34.0226 12.6027L34 12.5475L34.05 12.513C34.7977 11.9966 35.6967 11.6988 36.6096 11.6215C37.5239 11.5442 38.4559 11.6905 39.2984 12.0328C39.7194 12.2047 40.1178 12.4253 40.4884 12.6812C40.8581 12.9384 41.196 13.235 41.5048 13.5557C42.1194 14.2008 42.6083 14.9477 42.9806 15.7399C43.168 16.1357 43.3251 16.5445 43.4547 16.9607C43.5212 17.1684 43.5764 17.3791 43.6291 17.5901C43.6778 17.8019 43.7235 18.015 43.7578 18.2294C43.8261 18.6581 43.8792 19.088 43.9187 19.5192C43.9414 19.7344 43.9561 19.9504 43.9744 20.166C43.9888 20.382 44.0062 20.5976 44.0175 20.8136C44.0684 21.6773 44.0971 22.5417 44.1062 23.4066C44.1166 24.2711 44.1066 25.136 44.0718 26C44.0836 25.568 44.0884 25.1355 44.0884 24.7035C44.0866 24.2715 44.0827 23.8391 44.0727 23.407C44.0544 22.543 44.017 21.6794 43.9575 20.817C43.944 20.6014 43.9244 20.3862 43.9079 20.1706C43.887 19.9554 43.8705 19.7402 43.8457 19.5255C43.8017 19.0959 43.7443 18.6672 43.6721 18.2423C43.5973 17.8177 43.4929 17.3982 43.3616 16.9865C43.2307 16.5748 43.0728 16.1711 42.8849 15.7802C42.5122 14.9984 42.0242 14.2635 41.4157 13.6325C41.1099 13.3189 40.7768 13.0293 40.4127 12.7797C40.0482 12.5308 39.6577 12.3177 39.2453 12.152C38.4203 11.8226 37.5126 11.6859 36.6231 11.7661C35.7358 11.8467 34.8921 12.0774 34.1714 12.578C34.5615 13.5156 35.2491 14.305 36.1134 14.8837C36.3304 15.0274 36.5579 15.1562 36.7936 15.2692C37.0298 15.3809 37.2751 15.4761 37.5265 15.5529C38.0293 15.7062 38.5555 15.788 39.0827 15.7918C39.3462 15.7939 39.6098 15.776 39.8699 15.7382L39.9673 15.7241L40.0643 15.7054L40.2579 15.6672C40.3849 15.6339 40.5136 15.6065 40.638 15.5646C40.7641 15.5284 40.8864 15.4811 41.0095 15.4362C41.0703 15.4125 41.1299 15.3855 41.1904 15.3602C41.2204 15.3473 41.2508 15.3353 41.2804 15.3211L41.3687 15.2783C41.427 15.2493 41.4874 15.2231 41.5444 15.1911L41.7167 15.0981C41.7736 15.0661 41.8289 15.0316 41.8854 14.9984C41.942 14.966 41.9968 14.9302 42.0511 14.8945C42.2712 14.7541 42.4813 14.5992 42.6853 14.4371C42.8901 14.276 43.0876 14.1048 43.2811 13.9299C43.6691 13.5806 44.0388 13.2109 44.4163 12.8466C44.7934 12.4818 45.177 12.12 45.5876 11.7844C45.792 11.6157 46.006 11.4566 46.2257 11.305C46.4453 11.1534 46.6771 11.0167 46.9137 10.89C47.3891 10.6403 47.8928 10.4409 48.4125 10.293C48.9331 10.1485 49.469 10.0525 50.01 10.0172C51.0913 9.94826 52.1878 10.0862 53.2081 10.4368C54.2281 10.7861 55.1697 11.339 55.9596 12.0469L56 12.083L55.9791 12.1312C55.8669 12.3867 55.7425 12.6372 55.6038 12.8806C55.462 13.1224 55.3093 13.3579 55.1419 13.5843C54.9722 13.809 54.7926 14.0267 54.5999 14.2332C54.4055 14.4384 54.2024 14.6361 53.9871 14.8214C53.1264 15.5629 52.0982 16.1229 50.9956 16.4569C49.893 16.7908 48.717 16.9022 47.5687 16.7734C46.4205 16.6475 45.3036 16.2749 44.3228 15.6938L44.2754 15.6659L44.3176 15.6319C44.8012 15.2389 45.2436 14.8006 45.6937 14.369C46.1443 13.9391 46.6045 13.5116 47.1255 13.1556C47.644 12.7975 48.2251 12.5242 48.8344 12.3422C49.1393 12.2521 49.4511 12.1823 49.7665 12.1379C50.0814 12.0938 50.4006 12.0722 50.719 12.0731Z"/>
</mask>
<path d="M50.719 12.0731C50.4002 12.076 50.0822 12.1013 49.7678 12.1495C49.4533 12.1977 49.1436 12.2712 48.8414 12.3647C48.2372 12.5537 47.6618 12.8291 47.1512 13.1897C46.6375 13.5478 46.1839 13.9773 45.7381 14.411C45.2931 14.8459 44.8491 15.265 44.365 15.6659C45.3423 16.2305 46.4462 16.5557 47.5805 16.6733C48.7139 16.7942 49.8735 16.6774 50.9569 16.3422C52.0408 16.0074 53.0485 15.4503 53.8888 14.718C54.7291 13.986 55.4215 13.1631 55.8504 12.1582C55.0749 11.4662 54.1515 10.9265 53.1525 10.5863C52.1534 10.2449 51.0791 10.1119 50.0227 10.1813C49.4938 10.2166 48.9705 10.3117 48.4621 10.4538C47.9545 10.5992 47.4631 10.7949 46.9994 11.0395C46.7693 11.1637 46.5445 11.2967 46.3296 11.4454C46.1152 11.5941 45.906 11.7499 45.705 11.9165C45.3018 12.2475 44.9226 12.6069 44.5472 12.9712C44.1714 13.3351 43.7983 13.7044 43.406 14.0575C43.2098 14.234 43.0093 14.4068 42.8005 14.5709C42.5922 14.7358 42.3773 14.8937 42.1512 15.0374C42.0951 15.074 42.0389 15.1105 41.9807 15.1437C41.9228 15.1778 41.8658 15.2131 41.8071 15.2455L41.6292 15.3411C41.5705 15.3739 41.5083 15.4005 41.4479 15.4304L41.3565 15.4744C41.3261 15.4885 41.2943 15.501 41.2635 15.5143C41.2008 15.54 41.1395 15.5679 41.0764 15.5924C40.949 15.6389 40.8224 15.6875 40.6919 15.7245C40.5632 15.7673 40.4297 15.7959 40.2983 15.83L40.0978 15.8691L39.9974 15.8882L39.896 15.9027C39.6263 15.9413 39.3536 15.9592 39.0809 15.9567C38.536 15.9517 37.9927 15.8661 37.4743 15.707C37.2151 15.6273 36.9624 15.5288 36.7188 15.4129C36.4757 15.2958 36.2412 15.1624 36.0181 15.0141C35.1282 14.416 34.4228 13.5702 34.0226 12.6027L34 12.5475L34.05 12.513C34.7977 11.9966 35.6967 11.6988 36.6096 11.6215C37.5239 11.5442 38.4559 11.6905 39.2984 12.0328C39.7194 12.2047 40.1178 12.4253 40.4884 12.6812C40.8581 12.9384 41.196 13.235 41.5048 13.5557C42.1194 14.2008 42.6083 14.9477 42.9806 15.7399C43.168 16.1357 43.3251 16.5445 43.4547 16.9607C43.5212 17.1684 43.5764 17.3791 43.6291 17.5901C43.6778 17.8019 43.7235 18.015 43.7578 18.2294C43.8261 18.6581 43.8792 19.088 43.9187 19.5192C43.9414 19.7344 43.9561 19.9504 43.9744 20.166C43.9888 20.382 44.0062 20.5976 44.0175 20.8136C44.0684 21.6773 44.0971 22.5417 44.1062 23.4066C44.1166 24.2711 44.1066 25.136 44.0718 26C44.0836 25.568 44.0884 25.1355 44.0884 24.7035C44.0866 24.2715 44.0827 23.8391 44.0727 23.407C44.0544 22.543 44.017 21.6794 43.9575 20.817C43.944 20.6014 43.9244 20.3862 43.9079 20.1706C43.887 19.9554 43.8705 19.7402 43.8457 19.5255C43.8017 19.0959 43.7443 18.6672 43.6721 18.2423C43.5973 17.8177 43.4929 17.3982 43.3616 16.9865C43.2307 16.5748 43.0728 16.1711 42.8849 15.7802C42.5122 14.9984 42.0242 14.2635 41.4157 13.6325C41.1099 13.3189 40.7768 13.0293 40.4127 12.7797C40.0482 12.5308 39.6577 12.3177 39.2453 12.152C38.4203 11.8226 37.5126 11.6859 36.6231 11.7661C35.7358 11.8467 34.8921 12.0774 34.1714 12.578C34.5615 13.5156 35.2491 14.305 36.1134 14.8837C36.3304 15.0274 36.5579 15.1562 36.7936 15.2692C37.0298 15.3809 37.2751 15.4761 37.5265 15.5529C38.0293 15.7062 38.5555 15.788 39.0827 15.7918C39.3462 15.7939 39.6098 15.776 39.8699 15.7382L39.9673 15.7241L40.0643 15.7054L40.2579 15.6672C40.3849 15.6339 40.5136 15.6065 40.638 15.5646C40.7641 15.5284 40.8864 15.4811 41.0095 15.4362C41.0703 15.4125 41.1299 15.3855 41.1904 15.3602C41.2204 15.3473 41.2508 15.3353 41.2804 15.3211L41.3687 15.2783C41.427 15.2493 41.4874 15.2231 41.5444 15.1911L41.7167 15.0981C41.7736 15.0661 41.8289 15.0316 41.8854 14.9984C41.942 14.966 41.9968 14.9302 42.0511 14.8945C42.2712 14.7541 42.4813 14.5992 42.6853 14.4371C42.8901 14.276 43.0876 14.1048 43.2811 13.9299C43.6691 13.5806 44.0388 13.2109 44.4163 12.8466C44.7934 12.4818 45.177 12.12 45.5876 11.7844C45.792 11.6157 46.006 11.4566 46.2257 11.305C46.4453 11.1534 46.6771 11.0167 46.9137 10.89C47.3891 10.6403 47.8928 10.4409 48.4125 10.293C48.9331 10.1485 49.469 10.0525 50.01 10.0172C51.0913 9.94826 52.1878 10.0862 53.2081 10.4368C54.2281 10.7861 55.1697 11.339 55.9596 12.0469L56 12.083L55.9791 12.1312C55.8669 12.3867 55.7425 12.6372 55.6038 12.8806C55.462 13.1224 55.3093 13.3579 55.1419 13.5843C54.9722 13.809 54.7926 14.0267 54.5999 14.2332C54.4055 14.4384 54.2024 14.6361 53.9871 14.8214C53.1264 15.5629 52.0982 16.1229 50.9956 16.4569C49.893 16.7908 48.717 16.9022 47.5687 16.7734C46.4205 16.6475 45.3036 16.2749 44.3228 15.6938L44.2754 15.6659L44.3176 15.6319C44.8012 15.2389 45.2436 14.8006 45.6937 14.369C46.1443 13.9391 46.6045 13.5116 47.1255 13.1556C47.644 12.7975 48.2251 12.5242 48.8344 12.3422C49.1393 12.2521 49.4511 12.1823 49.7665 12.1379C50.0814 12.0938 50.4006 12.0722 50.719 12.0731Z" fill="white"/>
<path d="M50.719 12.0731C50.4002 12.076 50.0822 12.1013 49.7678 12.1495C49.4533 12.1977 49.1436 12.2712 48.8414 12.3647C48.2372 12.5537 47.6618 12.8291 47.1512 13.1897C46.6375 13.5478 46.1839 13.9773 45.7381 14.411C45.2931 14.8459 44.8491 15.265 44.365 15.6659C45.3423 16.2305 46.4462 16.5557 47.5805 16.6733C48.7139 16.7942 49.8735 16.6774 50.9569 16.3422C52.0408 16.0074 53.0485 15.4503 53.8888 14.718C54.7291 13.986 55.4215 13.1631 55.8504 12.1582C55.0749 11.4662 54.1515 10.9265 53.1525 10.5863C52.1534 10.2449 51.0791 10.1119 50.0227 10.1813C49.4938 10.2166 48.9705 10.3117 48.4621 10.4538C47.9545 10.5992 47.4631 10.7949 46.9994 11.0395C46.7693 11.1637 46.5445 11.2967 46.3296 11.4454C46.1152 11.5941 45.906 11.7499 45.705 11.9165C45.3018 12.2475 44.9226 12.6069 44.5472 12.9712C44.1714 13.3351 43.7983 13.7044 43.406 14.0575C43.2098 14.234 43.0093 14.4068 42.8005 14.5709C42.5922 14.7358 42.3773 14.8937 42.1512 15.0374C42.0951 15.074 42.0389 15.1105 41.9807 15.1437C41.9228 15.1778 41.8658 15.2131 41.8071 15.2455L41.6292 15.3411C41.5705 15.3739 41.5083 15.4005 41.4479 15.4304L41.3565 15.4744C41.3261 15.4885 41.2943 15.501 41.2635 15.5143C41.2008 15.54 41.1395 15.5679 41.0764 15.5924C40.949 15.6389 40.8224 15.6875 40.6919 15.7245C40.5632 15.7673 40.4297 15.7959 40.2983 15.83L40.0978 15.8691L39.9974 15.8882L39.896 15.9027C39.6263 15.9413 39.3536 15.9592 39.0809 15.9567C38.536 15.9517 37.9927 15.8661 37.4743 15.707C37.2151 15.6273 36.9624 15.5288 36.7188 15.4129C36.4757 15.2958 36.2412 15.1624 36.0181 15.0141C35.1282 14.416 34.4228 13.5702 34.0226 12.6027L34 12.5475L34.05 12.513C34.7977 11.9966 35.6967 11.6988 36.6096 11.6215C37.5239 11.5442 38.4559 11.6905 39.2984 12.0328C39.7194 12.2047 40.1178 12.4253 40.4884 12.6812C40.8581 12.9384 41.196 13.235 41.5048 13.5557C42.1194 14.2008 42.6083 14.9477 42.9806 15.7399C43.168 16.1357 43.3251 16.5445 43.4547 16.9607C43.5212 17.1684 43.5764 17.3791 43.6291 17.5901C43.6778 17.8019 43.7235 18.015 43.7578 18.2294C43.8261 18.6581 43.8792 19.088 43.9187 19.5192C43.9414 19.7344 43.9561 19.9504 43.9744 20.166C43.9888 20.382 44.0062 20.5976 44.0175 20.8136C44.0684 21.6773 44.0971 22.5417 44.1062 23.4066C44.1166 24.2711 44.1066 25.136 44.0718 26C44.0836 25.568 44.0884 25.1355 44.0884 24.7035C44.0866 24.2715 44.0827 23.8391 44.0727 23.407C44.0544 22.543 44.017 21.6794 43.9575 20.817C43.944 20.6014 43.9244 20.3862 43.9079 20.1706C43.887 19.9554 43.8705 19.7402 43.8457 19.5255C43.8017 19.0959 43.7443 18.6672 43.6721 18.2423C43.5973 17.8177 43.4929 17.3982 43.3616 16.9865C43.2307 16.5748 43.0728 16.1711 42.8849 15.7802C42.5122 14.9984 42.0242 14.2635 41.4157 13.6325C41.1099 13.3189 40.7768 13.0293 40.4127 12.7797C40.0482 12.5308 39.6577 12.3177 39.2453 12.152C38.4203 11.8226 37.5126 11.6859 36.6231 11.7661C35.7358 11.8467 34.8921 12.0774 34.1714 12.578C34.5615 13.5156 35.2491 14.305 36.1134 14.8837C36.3304 15.0274 36.5579 15.1562 36.7936 15.2692C37.0298 15.3809 37.2751 15.4761 37.5265 15.5529C38.0293 15.7062 38.5555 15.788 39.0827 15.7918C39.3462 15.7939 39.6098 15.776 39.8699 15.7382L39.9673 15.7241L40.0643 15.7054L40.2579 15.6672C40.3849 15.6339 40.5136 15.6065 40.638 15.5646C40.7641 15.5284 40.8864 15.4811 41.0095 15.4362C41.0703 15.4125 41.1299 15.3855 41.1904 15.3602C41.2204 15.3473 41.2508 15.3353 41.2804 15.3211L41.3687 15.2783C41.427 15.2493 41.4874 15.2231 41.5444 15.1911L41.7167 15.0981C41.7736 15.0661 41.8289 15.0316 41.8854 14.9984C41.942 14.966 41.9968 14.9302 42.0511 14.8945C42.2712 14.7541 42.4813 14.5992 42.6853 14.4371C42.8901 14.276 43.0876 14.1048 43.2811 13.9299C43.6691 13.5806 44.0388 13.2109 44.4163 12.8466C44.7934 12.4818 45.177 12.12 45.5876 11.7844C45.792 11.6157 46.006 11.4566 46.2257 11.305C46.4453 11.1534 46.6771 11.0167 46.9137 10.89C47.3891 10.6403 47.8928 10.4409 48.4125 10.293C48.9331 10.1485 49.469 10.0525 50.01 10.0172C51.0913 9.94826 52.1878 10.0862 53.2081 10.4368C54.2281 10.7861 55.1697 11.339 55.9596 12.0469L56 12.083L55.9791 12.1312C55.8669 12.3867 55.7425 12.6372 55.6038 12.8806C55.462 13.1224 55.3093 13.3579 55.1419 13.5843C54.9722 13.809 54.7926 14.0267 54.5999 14.2332C54.4055 14.4384 54.2024 14.6361 53.9871 14.8214C53.1264 15.5629 52.0982 16.1229 50.9956 16.4569C49.893 16.7908 48.717 16.9022 47.5687 16.7734C46.4205 16.6475 45.3036 16.2749 44.3228 15.6938L44.2754 15.6659L44.3176 15.6319C44.8012 15.2389 45.2436 14.8006 45.6937 14.369C46.1443 13.9391 46.6045 13.5116 47.1255 13.1556C47.644 12.7975 48.2251 12.5242 48.8344 12.3422C49.1393 12.2521 49.4511 12.1823 49.7665 12.1379C50.0814 12.0938 50.4006 12.0722 50.719 12.0731Z" stroke="white" stroke-width="0.56" mask="url(#path-2-outside-1_300_794)"/>
<path d="M59.3627 37.323C58.2378 35.7059 56.0583 35.3193 54.4764 36.4442L45.0553 43.0531C44.7757 43.2155 44.4666 43.3056 44.1764 43.4447C41.3288 44.8086 38.0323 45.0934 35.0014 44.0725L24.2796 40.4867C23.3656 40.2056 22.8733 39.1861 23.1898 38.2723C23.4709 37.3935 24.3849 36.9013 25.2989 37.1474C25.3341 37.1474 37.3566 41.0846 37.3566 41.0846C39.4008 41.6973 41.2171 40.5406 41.7859 38.8348C42.3834 36.9715 41.364 35.0029 39.5361 34.4054L23.1195 28.9917C17.8429 27.0708 9.86293 28.4261 5.76545 34.4756L3.51562 40.8371V48.2357L24.4554 52.9663C26.9818 53.522 29.3437 53.8333 31.7321 53.8333H32.1188C36.3171 53.7833 40.3782 52.8571 44.1764 51.2942C45.7211 50.6586 47.233 49.9382 48.6762 49.0641L58.4839 42.2093C60.136 41.0493 60.4525 38.8698 59.3627 37.323Z" fill="#FFE1BA"/>
<path d="M58.4832 42.213C60.1353 41.0529 60.4518 38.8735 59.3621 37.3267C58.2372 35.7095 56.0576 35.323 54.4757 36.4479L45.0546 43.0567C44.775 43.2191 44.4659 43.3092 44.1758 43.4483V51.298C45.7204 50.6624 47.2324 49.942 48.6755 49.0678L58.4832 42.213Z" fill="#FFE1BA"/>
<path d="M5.27302 52.8967H1.75767C0.786968 52.8967 0 52.1098 0 51.1391V33.5624C0 32.5917 0.786968 31.8047 1.75767 31.8047H5.27302C6.24372 31.8047 7.03069 32.5917 7.03069 33.5624V51.1391C7.03069 52.1098 6.24372 52.8967 5.27302 52.8967Z" fill="url(#paint1_linear_300_794)"/>
<defs>
<linearGradient id="paint0_linear_300_794" x1="28.3574" y1="6.10011" x2="61.0636" y2="8.41243" gradientUnits="userSpaceOnUse">
<stop stop-color="#30C917"/>
<stop offset="1" stop-color="#279A13"/>
</linearGradient>
<linearGradient id="paint1_linear_300_794" x1="4.06825e-08" y1="35.7594" x2="7.3003" y2="35.9315" gradientUnits="userSpaceOnUse">
<stop stop-color="#30C917"/>
<stop offset="1" stop-color="#279A13"/>
</linearGradient>
</defs>
</svg>
