<svg width="584" height="664" viewBox="0 0 584 664" fill="none" xmlns="http://www.w3.org/2000/svg">
<g clip-path="url(#clip0_300_87)">
<mask id="path-1-outside-1_300_87" maskUnits="userSpaceOnUse" x="49.7197" y="202.31" width="513.969" height="384.991" fill="black">
<rect fill="white" x="49.7197" y="202.31" width="513.969" height="384.991"/>
<path d="M437.132 254.375C429.791 254.501 422.474 255.159 415.242 256.357C408.009 257.555 400.891 259.352 393.948 261.62C380.071 266.205 366.871 272.831 355.179 281.462C343.416 290.035 333.05 300.289 322.864 310.64C312.698 321.02 302.674 331.605 291.601 341.186L291.469 339.711C314.08 352.904 339.567 361.303 365.711 363.883C391.835 366.541 418.516 363.568 443.403 355.433C468.301 347.309 491.404 333.935 510.619 316.439C529.834 298.954 545.171 277.347 554.86 253.472L555.316 255.466C537.329 239.216 515.965 226.604 492.896 218.727C469.826 210.821 445.062 207.867 420.746 209.7C408.573 210.632 396.542 212.979 384.859 216.435C373.198 219.97 361.916 224.692 351.284 230.57C346.009 233.553 340.855 236.742 335.935 240.302C331.025 243.863 326.236 247.59 321.64 251.571C312.416 259.484 303.749 268.062 295.173 276.757C286.587 285.443 278.061 294.256 269.093 302.688C264.608 306.905 260.023 311.033 255.246 314.957C250.479 318.9 245.56 322.677 240.378 326.122C239.093 326.997 237.808 327.873 236.472 328.671C235.146 329.488 233.841 330.334 232.494 331.112L228.416 333.407C227.07 334.195 225.642 334.836 224.256 335.555L222.16 336.614C221.462 336.954 220.733 337.255 220.024 337.575C218.587 338.197 217.18 338.867 215.732 339.459C212.806 340.583 209.9 341.757 206.902 342.656C203.946 343.693 200.876 344.396 197.858 345.226L193.247 346.187L190.937 346.658L188.606 347.02C182.404 347.984 176.127 348.456 169.846 348.446C157.296 348.426 144.77 346.498 132.801 342.824C126.817 340.981 120.979 338.696 115.349 335.995C109.728 333.264 104.305 330.149 99.1394 326.677C78.5359 312.671 62.1331 292.769 52.739 269.93L52.2079 268.625L53.3534 267.8C70.475 255.437 91.1226 248.221 112.132 246.227C133.171 244.232 154.662 247.527 174.127 255.481C183.854 259.478 193.069 264.63 201.65 270.623C210.212 276.645 218.049 283.609 225.22 291.148C239.492 306.314 250.889 323.914 259.609 342.607C263.999 351.949 267.691 361.601 270.753 371.435C272.324 376.341 273.635 381.319 274.886 386.307C276.047 391.316 277.138 396.354 277.969 401.424C279.621 411.564 280.923 421.737 281.915 431.941C282.475 437.033 282.856 442.146 283.317 447.248C283.687 452.361 284.128 457.463 284.428 462.577C285.76 483.02 286.582 503.487 286.953 523.967C287.353 544.438 287.283 564.921 286.642 585.39C286.833 575.157 286.863 564.915 286.782 554.684C286.662 544.453 286.492 534.213 286.181 523.983C285.6 503.524 284.579 483.079 283.047 462.667C282.696 457.563 282.206 452.471 281.785 447.368C281.264 442.276 280.844 437.183 280.233 432.102C279.142 421.937 277.74 411.795 275.999 401.744C274.197 391.704 271.715 381.787 268.614 372.061C265.523 362.336 261.812 352.802 257.413 343.579C248.684 325.132 237.31 307.817 223.181 292.984C216.081 285.611 208.356 278.815 199.926 272.968C191.486 267.141 182.453 262.165 172.927 258.314C153.865 250.661 132.937 247.589 112.469 249.648C92.0515 251.716 72.0431 258.711 55.5396 270.695L56.154 268.565C65.3122 290.698 81.2997 310.023 101.309 323.571C106.333 326.936 111.596 329.944 117.045 332.577C122.505 335.181 128.171 337.39 133.975 339.164C145.581 342.704 157.716 344.547 169.856 344.54C175.926 344.542 181.992 344.071 187.975 343.129L190.216 342.777L192.446 342.317L196.896 341.377C199.814 340.567 202.774 339.895 205.631 338.879C208.529 338 211.334 336.856 214.161 335.772C215.558 335.2 216.926 334.55 218.313 333.939C219.002 333.628 219.701 333.338 220.379 332.998L222.404 331.969C223.741 331.269 225.129 330.639 226.435 329.871L230.384 327.636C231.69 326.869 232.956 326.042 234.251 325.245C235.547 324.467 236.803 323.611 238.048 322.756C243.09 319.391 247.899 315.683 252.567 311.81C257.254 307.956 261.77 303.867 266.194 299.691C275.064 291.347 283.509 282.525 292.135 273.83C300.751 265.124 309.518 256.486 318.911 248.463C323.587 244.433 328.485 240.626 333.515 236.996C338.545 233.365 343.858 230.087 349.284 227.044C360.185 221.046 371.746 216.233 383.688 212.637C395.65 209.119 407.972 206.75 420.425 205.817C445.312 203.988 470.588 207.057 494.15 215.176C517.702 223.265 539.489 236.189 557.81 252.81L558.748 253.658L558.276 254.803C555.739 260.874 552.921 266.828 549.771 272.618C546.551 278.369 543.079 283.975 539.265 289.366C535.4 294.719 531.304 299.906 526.905 304.83C522.466 309.725 517.825 314.445 512.902 318.871C493.218 336.586 469.644 350.033 444.316 358.141C418.987 366.25 391.925 369.098 365.459 366.256C338.994 363.482 313.203 354.859 290.51 341.273L289.413 340.623L290.378 339.808C301.443 330.415 311.548 319.956 321.834 309.654C332.131 299.391 342.649 289.185 354.582 280.66C366.454 272.086 379.785 265.508 393.783 261.09C400.788 258.9 407.956 257.191 415.21 256.081C422.453 254.982 429.801 254.413 437.132 254.375Z"/>
</mask>
<path d="M437.132 254.375C429.791 254.501 422.474 255.159 415.242 256.357C408.009 257.555 400.891 259.352 393.948 261.62C380.071 266.205 366.871 272.831 355.179 281.462C343.416 290.035 333.05 300.289 322.864 310.64C312.698 321.02 302.674 331.605 291.601 341.186L291.469 339.711C314.08 352.904 339.567 361.303 365.711 363.883C391.835 366.541 418.516 363.568 443.403 355.433C468.301 347.309 491.404 333.935 510.619 316.439C529.834 298.954 545.171 277.347 554.86 253.472L555.316 255.466C537.329 239.216 515.965 226.604 492.896 218.727C469.826 210.821 445.062 207.867 420.746 209.7C408.573 210.632 396.542 212.979 384.859 216.435C373.198 219.97 361.916 224.692 351.284 230.57C346.009 233.553 340.855 236.742 335.935 240.302C331.025 243.863 326.236 247.59 321.64 251.571C312.416 259.484 303.749 268.062 295.173 276.757C286.587 285.443 278.061 294.256 269.093 302.688C264.608 306.905 260.023 311.033 255.246 314.957C250.479 318.9 245.56 322.677 240.378 326.122C239.093 326.997 237.808 327.873 236.472 328.671C235.146 329.488 233.841 330.334 232.494 331.112L228.416 333.407C227.07 334.195 225.642 334.836 224.256 335.555L222.16 336.614C221.462 336.954 220.733 337.255 220.024 337.575C218.587 338.197 217.18 338.867 215.732 339.459C212.806 340.583 209.9 341.757 206.902 342.656C203.946 343.693 200.876 344.396 197.858 345.226L193.247 346.187L190.937 346.658L188.606 347.02C182.404 347.984 176.127 348.456 169.846 348.446C157.296 348.426 144.77 346.498 132.801 342.824C126.817 340.981 120.979 338.696 115.349 335.995C109.728 333.264 104.305 330.149 99.1394 326.677C78.5359 312.671 62.1331 292.769 52.739 269.93L52.2079 268.625L53.3534 267.8C70.475 255.437 91.1226 248.221 112.132 246.227C133.171 244.232 154.662 247.527 174.127 255.481C183.854 259.478 193.069 264.63 201.65 270.623C210.212 276.645 218.049 283.609 225.22 291.148C239.492 306.314 250.889 323.914 259.609 342.607C263.999 351.949 267.691 361.601 270.753 371.435C272.324 376.341 273.635 381.319 274.886 386.307C276.047 391.316 277.138 396.354 277.969 401.424C279.621 411.564 280.923 421.737 281.915 431.941C282.475 437.033 282.856 442.146 283.317 447.248C283.687 452.361 284.128 457.463 284.428 462.577C285.76 483.02 286.582 503.487 286.953 523.967C287.353 544.438 287.283 564.921 286.642 585.39C286.833 575.157 286.863 564.915 286.782 554.684C286.662 544.453 286.492 534.213 286.181 523.983C285.6 503.524 284.579 483.079 283.047 462.667C282.696 457.563 282.206 452.471 281.785 447.368C281.264 442.276 280.844 437.183 280.233 432.102C279.142 421.937 277.74 411.795 275.999 401.744C274.197 391.704 271.715 381.787 268.614 372.061C265.523 362.336 261.812 352.802 257.413 343.579C248.684 325.132 237.31 307.817 223.181 292.984C216.081 285.611 208.356 278.815 199.926 272.968C191.486 267.141 182.453 262.165 172.927 258.314C153.865 250.661 132.937 247.589 112.469 249.648C92.0515 251.716 72.0431 258.711 55.5396 270.695L56.154 268.565C65.3122 290.698 81.2997 310.023 101.309 323.571C106.333 326.936 111.596 329.944 117.045 332.577C122.505 335.181 128.171 337.39 133.975 339.164C145.581 342.704 157.716 344.547 169.856 344.54C175.926 344.542 181.992 344.071 187.975 343.129L190.216 342.777L192.446 342.317L196.896 341.377C199.814 340.567 202.774 339.895 205.631 338.879C208.529 338 211.334 336.856 214.161 335.772C215.558 335.2 216.926 334.55 218.313 333.939C219.002 333.628 219.701 333.338 220.379 332.998L222.404 331.969C223.741 331.269 225.129 330.639 226.435 329.871L230.384 327.636C231.69 326.869 232.956 326.042 234.251 325.245C235.547 324.467 236.803 323.611 238.048 322.756C243.09 319.391 247.899 315.683 252.567 311.81C257.254 307.956 261.77 303.867 266.194 299.691C275.064 291.347 283.509 282.525 292.135 273.83C300.751 265.124 309.518 256.486 318.911 248.463C323.587 244.433 328.485 240.626 333.515 236.996C338.545 233.365 343.858 230.087 349.284 227.044C360.185 221.046 371.746 216.233 383.688 212.637C395.65 209.119 407.972 206.75 420.425 205.817C445.312 203.988 470.588 207.057 494.15 215.176C517.702 223.265 539.489 236.189 557.81 252.81L558.748 253.658L558.276 254.803C555.739 260.874 552.921 266.828 549.771 272.618C546.551 278.369 543.079 283.975 539.265 289.366C535.4 294.719 531.304 299.906 526.905 304.83C522.466 309.725 517.825 314.445 512.902 318.871C493.218 336.586 469.644 350.033 444.316 358.141C418.987 366.25 391.925 369.098 365.459 366.256C338.994 363.482 313.203 354.859 290.51 341.273L289.413 340.623L290.378 339.808C301.443 330.415 311.548 319.956 321.834 309.654C332.131 299.391 342.649 289.185 354.582 280.66C366.454 272.086 379.785 265.508 393.783 261.09C400.788 258.9 407.956 257.191 415.21 256.081C422.453 254.982 429.801 254.413 437.132 254.375Z" fill="url(#paint0_linear_300_87)" fill-opacity="0.12"/>
<path d="M437.132 254.375C429.791 254.501 422.474 255.159 415.242 256.357C408.009 257.555 400.891 259.352 393.948 261.62C380.071 266.205 366.871 272.831 355.179 281.462C343.416 290.035 333.05 300.289 322.864 310.64C312.698 321.02 302.674 331.605 291.601 341.186L291.469 339.711C314.08 352.904 339.567 361.303 365.711 363.883C391.835 366.541 418.516 363.568 443.403 355.433C468.301 347.309 491.404 333.935 510.619 316.439C529.834 298.954 545.171 277.347 554.86 253.472L555.316 255.466C537.329 239.216 515.965 226.604 492.896 218.727C469.826 210.821 445.062 207.867 420.746 209.7C408.573 210.632 396.542 212.979 384.859 216.435C373.198 219.97 361.916 224.692 351.284 230.57C346.009 233.553 340.855 236.742 335.935 240.302C331.025 243.863 326.236 247.59 321.64 251.571C312.416 259.484 303.749 268.062 295.173 276.757C286.587 285.443 278.061 294.256 269.093 302.688C264.608 306.905 260.023 311.033 255.246 314.957C250.479 318.9 245.56 322.677 240.378 326.122C239.093 326.997 237.808 327.873 236.472 328.671C235.146 329.488 233.841 330.334 232.494 331.112L228.416 333.407C227.07 334.195 225.642 334.836 224.256 335.555L222.16 336.614C221.462 336.954 220.733 337.255 220.024 337.575C218.587 338.197 217.18 338.867 215.732 339.459C212.806 340.583 209.9 341.757 206.902 342.656C203.946 343.693 200.876 344.396 197.858 345.226L193.247 346.187L190.937 346.658L188.606 347.02C182.404 347.984 176.127 348.456 169.846 348.446C157.296 348.426 144.77 346.498 132.801 342.824C126.817 340.981 120.979 338.696 115.349 335.995C109.728 333.264 104.305 330.149 99.1394 326.677C78.5359 312.671 62.1331 292.769 52.739 269.93L52.2079 268.625L53.3534 267.8C70.475 255.437 91.1226 248.221 112.132 246.227C133.171 244.232 154.662 247.527 174.127 255.481C183.854 259.478 193.069 264.63 201.65 270.623C210.212 276.645 218.049 283.609 225.22 291.148C239.492 306.314 250.889 323.914 259.609 342.607C263.999 351.949 267.691 361.601 270.753 371.435C272.324 376.341 273.635 381.319 274.886 386.307C276.047 391.316 277.138 396.354 277.969 401.424C279.621 411.564 280.923 421.737 281.915 431.941C282.475 437.033 282.856 442.146 283.317 447.248C283.687 452.361 284.128 457.463 284.428 462.577C285.76 483.02 286.582 503.487 286.953 523.967C287.353 544.438 287.283 564.921 286.642 585.39C286.833 575.157 286.863 564.915 286.782 554.684C286.662 544.453 286.492 534.213 286.181 523.983C285.6 503.524 284.579 483.079 283.047 462.667C282.696 457.563 282.206 452.471 281.785 447.368C281.264 442.276 280.844 437.183 280.233 432.102C279.142 421.937 277.74 411.795 275.999 401.744C274.197 391.704 271.715 381.787 268.614 372.061C265.523 362.336 261.812 352.802 257.413 343.579C248.684 325.132 237.31 307.817 223.181 292.984C216.081 285.611 208.356 278.815 199.926 272.968C191.486 267.141 182.453 262.165 172.927 258.314C153.865 250.661 132.937 247.589 112.469 249.648C92.0515 251.716 72.0431 258.711 55.5396 270.695L56.154 268.565C65.3122 290.698 81.2997 310.023 101.309 323.571C106.333 326.936 111.596 329.944 117.045 332.577C122.505 335.181 128.171 337.39 133.975 339.164C145.581 342.704 157.716 344.547 169.856 344.54C175.926 344.542 181.992 344.071 187.975 343.129L190.216 342.777L192.446 342.317L196.896 341.377C199.814 340.567 202.774 339.895 205.631 338.879C208.529 338 211.334 336.856 214.161 335.772C215.558 335.2 216.926 334.55 218.313 333.939C219.002 333.628 219.701 333.338 220.379 332.998L222.404 331.969C223.741 331.269 225.129 330.639 226.435 329.871L230.384 327.636C231.69 326.869 232.956 326.042 234.251 325.245C235.547 324.467 236.803 323.611 238.048 322.756C243.09 319.391 247.899 315.683 252.567 311.81C257.254 307.956 261.77 303.867 266.194 299.691C275.064 291.347 283.509 282.525 292.135 273.83C300.751 265.124 309.518 256.486 318.911 248.463C323.587 244.433 328.485 240.626 333.515 236.996C338.545 233.365 343.858 230.087 349.284 227.044C360.185 221.046 371.746 216.233 383.688 212.637C395.65 209.119 407.972 206.75 420.425 205.817C445.312 203.988 470.588 207.057 494.15 215.176C517.702 223.265 539.489 236.189 557.81 252.81L558.748 253.658L558.276 254.803C555.739 260.874 552.921 266.828 549.771 272.618C546.551 278.369 543.079 283.975 539.265 289.366C535.4 294.719 531.304 299.906 526.905 304.83C522.466 309.725 517.825 314.445 512.902 318.871C493.218 336.586 469.644 350.033 444.316 358.141C418.987 366.25 391.925 369.098 365.459 366.256C338.994 363.482 313.203 354.859 290.51 341.273L289.413 340.623L290.378 339.808C301.443 330.415 311.548 319.956 321.834 309.654C332.131 299.391 342.649 289.185 354.582 280.66C366.454 272.086 379.785 265.508 393.783 261.09C400.788 258.9 407.956 257.191 415.21 256.081C422.453 254.982 429.801 254.413 437.132 254.375Z" stroke="url(#paint1_linear_300_87)" stroke-opacity="0.12" stroke-width="2.92571" mask="url(#path-1-outside-1_300_87)"/>
</g>
<defs>
<linearGradient id="paint0_linear_300_87" x1="52.2919" y1="279.342" x2="574.363" y2="324.571" gradientUnits="userSpaceOnUse">
<stop stop-color="#0B3F01"/>
<stop offset="1" stop-color="#73E75F"/>
</linearGradient>
<linearGradient id="paint1_linear_300_87" x1="52.2919" y1="279.342" x2="574.363" y2="324.571" gradientUnits="userSpaceOnUse">
<stop stop-color="#0B3F01"/>
<stop offset="1" stop-color="#73E75F"/>
</linearGradient>
<clipPath id="clip0_300_87">
<rect width="593.963" height="658.156" fill="white" transform="translate(-15.7832 5.25781) rotate(-0.448798)"/>
</clipPath>
</defs>
</svg>
